<svg width="237" height="216" viewBox="0 0 237 216" fill="none" xmlns="http://www.w3.org/2000/svg">
<path fill-rule="evenodd" clip-rule="evenodd" d="M134.603 214.783C119.669 216.787 106.948 204.308 92.0811 201.85C67.1995 197.737 34.7707 214.392 17.9885 195.506C2.67536 178.273 15.77 148.419 26.4102 127.948C35.531 110.399 55.9012 103.145 71.9637 91.659C81.9517 84.5166 94.9706 82.38 103.064 73.1332C116.838 57.3962 116.282 30.1294 134.603 20.0935C152.648 10.2089 178.742 10.28 195.174 22.6775C211.887 35.2867 208.002 61.5035 215.466 81.1023C221.604 97.2209 239.865 111.321 235.265 127.948C230.366 145.657 206.194 148.973 193.127 161.852C184.248 170.603 180.275 182.895 171.03 191.256C160.118 201.125 149.164 212.829 134.603 214.783Z" stroke="#18181B"/>
<path fill-rule="evenodd" clip-rule="evenodd" d="M118.672 183.811C105.663 185.557 94.5816 174.684 81.6306 172.543C59.9561 168.959 31.707 183.47 17.0878 167.015C3.74832 152 15.1552 125.989 24.424 108.152C32.3693 92.8629 50.114 86.5423 64.1062 76.5346C72.8068 70.3115 84.1477 68.4499 91.1981 60.3933C103.197 46.6819 102.713 22.9246 118.672 14.1805C134.392 5.56819 157.122 5.63009 171.436 16.4319C185.995 27.4181 182.61 50.2605 189.112 67.3367C194.46 81.3806 210.367 93.6658 206.36 108.152C202.092 123.582 181.036 126.472 169.653 137.693C161.918 145.317 158.457 156.027 150.404 163.312C140.898 171.911 131.356 182.109 118.672 183.811Z" stroke="#18181B"/>
<path fill-rule="evenodd" clip-rule="evenodd" d="M97.136 156.832C85.5202 158.38 75.6265 148.743 64.0631 146.845C44.7108 143.668 19.4883 156.53 6.43549 141.945C-5.47473 128.637 4.71003 105.581 12.9857 89.7715C20.0797 76.2194 35.9232 70.617 48.4162 61.7465C56.1847 56.2307 66.3104 54.5806 72.6054 47.4395C83.3187 35.2862 82.8863 14.2286 97.136 6.47818C111.171 -1.15547 131.466 -1.10061 144.247 8.47373C157.245 18.2115 154.223 38.4581 160.029 53.5939C164.803 66.0419 179.006 76.9311 175.429 89.7715C171.618 103.448 152.818 106.009 142.654 115.955C135.748 122.713 132.658 132.206 125.468 138.663C116.981 146.285 108.461 155.323 97.136 156.832Z" stroke="#18181B"/>
</svg>
