<svg width="270" height="200" viewBox="0 0 270 200" fill="none" xmlns="http://www.w3.org/2000/svg">
<path d="M269.477 4.18549C269.347 2.25684 267.678 0.798364 265.75 0.927904C263.821 1.05744 262.363 2.72593 262.492 4.65458L269.477 4.18549ZM231.508 83.0459L229.714 80.0409L231.508 83.0459ZM148.749 72.4976L151.986 71.1677L148.749 72.4976ZM159.164 39.8587L160.689 43.0088L159.164 39.8587ZM187.843 49.1023L185.231 51.4324L187.843 49.1023ZM154.802 132.707L156.454 135.792L154.802 132.707ZM77.6083 118.586L74.4402 120.074L77.6083 118.586ZM84.6798 93.825L86.744 96.6515L84.6798 93.825ZM71.5752 189.508L70.5329 186.167L71.5752 189.508ZM3.91165 177.599L3.37814 174.14C2.11614 174.334 1.06029 175.201 0.623137 176.401C0.185988 177.6 0.436931 178.943 1.27793 179.904L3.91165 177.599ZM26.8486 177.603C28.759 177.308 30.0688 175.52 29.7742 173.61C29.4795 171.7 27.692 170.39 25.7816 170.684L26.8486 177.603ZM16.9552 197.816C18.2282 199.271 20.4394 199.418 21.894 198.145C23.3485 196.872 23.4957 194.66 22.2226 193.206L16.9552 197.816ZM265.984 4.42003C262.492 4.65458 262.492 4.65358 262.492 4.6528C262.492 4.65282 262.492 4.65224 262.492 4.65227C262.492 4.65235 262.492 4.65327 262.492 4.65502C262.492 4.65852 262.493 4.66536 262.494 4.6755C262.495 4.6958 262.497 4.72928 262.499 4.77562C262.505 4.8683 262.512 5.0124 262.52 5.20519C262.537 5.59084 262.558 6.17105 262.571 6.92428C262.598 8.43128 262.596 10.6277 262.476 13.3416C262.237 18.7773 261.53 26.2477 259.668 34.3934C255.925 50.7672 247.649 69.3306 229.714 80.0409L233.302 86.0509C253.591 73.9354 262.553 53.186 266.492 35.9533C268.471 27.2957 269.217 19.3895 269.469 13.6493C269.596 10.7754 269.599 8.43402 269.57 6.80028C269.556 5.98314 269.533 5.34223 269.514 4.89934C269.504 4.67788 269.495 4.50585 269.489 4.38599C269.485 4.32605 269.482 4.27915 269.48 4.24562C269.479 4.22885 269.478 4.21544 269.478 4.2054C269.477 4.20038 269.477 4.19621 269.477 4.19289C269.477 4.19123 269.477 4.18938 269.477 4.18855C269.477 4.18691 269.477 4.18549 265.984 4.42003ZM229.714 80.0409C215.622 88.4558 198.36 92.1621 183.452 90.663C168.488 89.1583 156.663 82.5538 151.986 71.1677L145.511 73.8275C151.546 88.5184 166.376 95.9811 182.751 97.6278C199.182 99.2801 217.944 95.2221 233.302 86.0509L229.714 80.0409ZM151.986 71.1677C150.643 67.8978 149.91 62.0864 151.112 56.3539C152.297 50.7014 155.231 45.6516 160.689 43.0088L157.638 36.7086C149.646 40.5787 145.738 47.8689 144.261 54.9178C142.8 61.8867 143.585 69.1382 145.511 73.8275L151.986 71.1677ZM160.689 43.0088C165.876 40.497 170.507 41.0607 174.616 42.9758C178.863 44.9554 182.506 48.378 185.231 51.4324L190.454 46.7723C187.494 43.4537 183.095 39.2049 177.573 36.6311C171.912 33.9928 165.047 33.1211 157.638 36.7086L160.689 43.0088ZM185.231 51.4324C195.868 63.3549 195.746 78.4207 188.835 93.0729C181.888 107.798 168.265 121.524 153.149 129.622L156.454 135.792C172.754 127.06 187.514 112.28 195.165 96.0593C202.852 79.7652 203.543 61.4437 190.454 46.7723L185.231 51.4324ZM153.149 129.622C140.199 136.559 124.889 139.77 111.414 138.006C98.0201 136.252 86.6714 129.652 80.7764 117.099L74.4402 120.074C81.5717 135.26 95.3127 142.957 110.505 144.946C125.617 146.925 142.391 143.326 156.454 135.792L153.149 129.622ZM80.7764 117.099C78.9576 113.226 78.5953 109.565 79.4929 106.262C80.3931 102.949 82.6597 99.6342 86.744 96.6515L82.6156 90.9985C77.5175 94.7217 74.1346 99.286 72.7378 104.427C71.3383 109.577 72.0315 114.945 74.4402 120.074L80.7764 117.099ZM86.744 96.6515C90.3616 94.0095 93.8839 93.5403 97.3886 94.405C101.063 95.3115 104.922 97.7489 108.747 101.321L113.525 96.2053C109.252 92.2139 104.357 88.9143 99.0653 87.6088C93.6037 86.2613 87.947 87.1049 82.6156 90.9985L86.744 96.6515ZM108.747 101.321C121.271 113.017 120.372 131.109 111.349 148.629C102.356 166.088 85.9942 181.344 70.5329 186.167L72.6174 192.849C90.2956 187.335 107.951 170.515 117.572 151.834C127.162 133.214 129.475 111.102 113.525 96.2053L108.747 101.321ZM70.5329 186.167C58.5918 189.892 42.5564 187.205 28.9708 183.236C22.2804 181.282 16.3758 179.076 12.1429 177.358C10.0287 176.499 8.33736 175.765 7.18015 175.248C6.60169 174.989 6.1571 174.785 5.86036 174.647C5.71198 174.579 5.60061 174.526 5.52796 174.492C5.49164 174.475 5.46501 174.462 5.44827 174.454C5.43992 174.45 5.43403 174.447 5.43065 174.446C5.42895 174.445 5.42789 174.444 5.42745 174.444C5.42722 174.444 5.42738 174.444 5.42726 174.444C5.42757 174.444 5.42803 174.444 3.91165 177.599C2.39527 180.753 2.39606 180.754 2.397 180.754C2.39752 180.754 2.39861 180.755 2.39966 180.755C2.40176 180.756 2.4045 180.758 2.40786 180.759C2.4146 180.763 2.42385 180.767 2.4356 180.773C2.45912 180.784 2.49261 180.8 2.53591 180.82C2.62246 180.861 2.74816 180.92 2.91121 180.996C3.2373 181.147 3.713 181.366 4.32429 181.639C5.54658 182.185 7.31254 182.951 9.50972 183.844C13.8995 185.626 20.0338 187.918 27.008 189.956C40.7514 193.97 58.5478 197.238 72.6174 192.849L70.5329 186.167ZM4.44516 181.058L26.8486 177.603L25.7816 170.684L3.37814 174.14L4.44516 181.058ZM1.27793 179.904L16.9552 197.816L22.2226 193.206L6.54537 175.294L1.27793 179.904Z" fill="#18181B"/>
</svg>
