<svg width="29" height="29" viewBox="0 0 29 29" fill="none" xmlns="http://www.w3.org/2000/svg">
<path d="M6.73808 4.7886C6.36516 0.727368 11.6049 -1.21252 13.9665 2.11243L16.3365 5.44903C17.1602 6.60874 18.5388 7.2424 19.9554 7.11233L24.0308 6.7381C28.092 6.36518 30.0319 11.6049 26.707 13.9666L23.3704 16.3365C22.2107 17.1602 21.577 18.5389 21.7071 19.9554L22.0813 24.0308C22.4542 28.0921 17.2145 30.032 14.8529 26.707L12.4829 23.3704C11.6592 22.2107 10.2805 21.577 8.86404 21.7071L4.78858 22.0813C0.727352 22.4543 -1.21253 17.2145 2.11242 14.8529L5.44902 12.483C6.60872 11.6592 7.24238 10.2806 7.11231 8.86405L6.73808 4.7886Z" fill="#F77D89"/>
</svg>
