<svg width="30" height="30" viewBox="0 0 30 30" fill="none" xmlns="http://www.w3.org/2000/svg">
<path d="M15 30C23.2843 30 30 23.2843 30 15C30 6.71572 23.2843 0 15 0C6.71573 0 0 6.71572 0 15C0 23.2843 6.71573 30 15 30Z" fill="url(#paint0_linear_1743_2294)"/>
<path d="M20.2937 8.56689C19.6476 8.56689 19.1172 9.08763 19.1172 9.74337C19.1172 10.3991 19.6379 10.9198 20.2937 10.9198C20.9494 10.9198 21.4701 10.3991 21.4701 9.74337C21.4701 9.08763 20.9494 8.56689 20.2937 8.56689Z" fill="white"/>
<path d="M15.0859 10.0737C12.3665 10.0737 10.1582 12.282 10.1582 15.0014C10.1582 17.7208 12.3665 19.9291 15.0859 19.9291C17.8053 19.9291 20.0136 17.7208 20.0136 15.0014C20.0136 12.282 17.8053 10.0737 15.0859 10.0737ZM15.0859 18.1547C13.3501 18.1547 11.9326 16.7372 11.9326 15.0014C11.9326 13.2656 13.3501 11.8481 15.0859 11.8481C16.8217 11.8481 18.2392 13.2656 18.2392 15.0014C18.2392 16.7372 16.8217 18.1547 15.0859 18.1547Z" fill="white"/>
<path d="M18.9923 25H11.0077C7.69045 25 5 22.2999 5 18.9923V11.0077C5 7.69045 7.69045 5 11.0077 5H18.9923C22.3095 5 25 7.69045 25 11.0077V18.9923C25 22.3095 22.2999 25 18.9923 25ZM11.0077 6.88042C8.73192 6.88042 6.88042 8.73192 6.88042 11.0077V18.9923C6.88042 21.2681 8.73192 23.1196 11.0077 23.1196H18.9923C21.2681 23.1196 23.1196 21.2681 23.1196 18.9923V11.0077C23.1196 8.73192 21.2681 6.88042 18.9923 6.88042H11.0077Z" fill="white"/>
<defs>
<linearGradient id="paint0_linear_1743_2294" x1="0.949689" y1="3.13737" x2="30.9412" y2="28.4652" gradientUnits="userSpaceOnUse">
<stop stop-color="#FBE18A"/>
<stop offset="0.21" stop-color="#FCBB45"/>
<stop offset="0.38" stop-color="#F75274"/>
<stop offset="0.52" stop-color="#D53692"/>
<stop offset="0.74" stop-color="#8F39CE"/>
<stop offset="1" stop-color="#5B4FE9"/>
</linearGradient>
</defs>
</svg>
