<svg width="30" height="30" viewBox="0 0 30 30" fill="none" xmlns="http://www.w3.org/2000/svg">
<path d="M15 30C23.2843 30 30 23.2843 30 15C30 6.71573 23.2843 0 15 0C6.71573 0 0 6.71573 0 15C0 23.2843 6.71573 30 15 30Z" fill="#33CCFF"/>
<path d="M24.917 9.04113C24.2843 9.34105 23.5789 9.52314 22.8943 9.64096C23.2158 9.5874 23.693 8.97687 23.8901 8.73051C24.1805 8.35562 24.4295 7.92717 24.5643 7.46659C24.5851 7.43445 24.5954 7.3809 24.5643 7.35948C24.5228 7.33805 24.4917 7.35948 24.4606 7.35948C23.693 7.78792 22.9046 8.08784 22.0644 8.31277C21.9918 8.33419 21.9399 8.31277 21.8985 8.26993C21.8258 8.18424 21.7636 8.10926 21.691 8.04499C21.3383 7.73437 20.9545 7.48801 20.5292 7.30592C19.9691 7.07027 19.3571 6.97387 18.745 7.006C18.1538 7.04885 17.5729 7.22023 17.0542 7.49872C16.5252 7.77721 16.0584 8.17352 15.685 8.64482C15.3012 9.13753 15.0107 9.71594 14.8655 10.3265C14.7203 10.9156 14.741 11.5047 14.824 12.1045C14.8344 12.2009 14.824 12.2224 14.741 12.2009C11.4424 11.6975 8.71429 10.4764 6.49446 7.8629C6.4011 7.74508 6.34923 7.74508 6.26625 7.8629C5.29118 9.36247 5.76834 11.7832 6.98199 12.9614C7.14796 13.1221 7.31393 13.2828 7.49027 13.422C7.42803 13.4327 6.61894 13.347 5.90319 12.9614C5.80984 12.8972 5.75797 12.9293 5.7476 13.0471C5.7476 13.2078 5.7476 13.3577 5.77872 13.5398C5.96543 15.0608 6.98199 16.4747 8.38236 17.021C8.54832 17.096 8.73504 17.1602 8.91138 17.1923C8.58982 17.2673 8.26825 17.3209 7.35542 17.2459C7.24132 17.2245 7.19983 17.278 7.24132 17.3959C7.92594 19.3239 9.40929 19.9023 10.5192 20.2343C10.6644 20.2558 10.82 20.2558 10.9652 20.2986C10.9652 20.3093 10.9445 20.3093 10.9341 20.3307C10.5711 20.9091 9.28481 21.3376 8.69355 21.5518C7.61475 21.9374 6.43222 22.1195 5.29118 22.0017C5.10447 21.9695 5.07335 21.9803 5.02148 22.0017C4.96962 22.0338 5.02148 22.0767 5.07335 22.1302C5.30156 22.2909 5.54014 22.4301 5.77872 22.5587C6.50483 22.955 7.26206 23.2763 8.05042 23.5012C12.1374 24.6688 16.743 23.8119 19.8031 20.6628C22.2096 18.1885 23.0602 14.7823 23.0602 11.3655C23.0602 11.2369 23.2158 11.1619 23.2988 11.087C23.9212 10.605 24.4295 10.0159 24.8963 9.37318C25 9.22322 25 9.09469 25 9.04113V9.01971C25 8.96615 25 8.97686 24.917 9.01971V9.04113Z" fill="white"/>
</svg>
