<svg width="30" height="30" viewBox="0 0 30 30" fill="none" xmlns="http://www.w3.org/2000/svg">
<circle cx="15" cy="15" r="15" fill="#FF0000"/>
<path d="M13.059 19.1523C13.0737 19.1022 13.0884 19.0449 13.1104 18.9875C13.2351 19.138 13.3379 19.2885 13.4699 19.4175C15.1502 21.0872 18.7895 20.9081 21.0347 18.1849C22.9864 15.82 23.1405 12.4663 22.9277 11.1118C22.4581 8.13067 19.9708 5.50066 16.0306 5.06352C12.7362 4.69804 9.11891 5.90196 7.18186 8.87596C5.42824 11.5633 5.80978 14.7308 7.1305 16.336C7.51937 16.809 7.9963 17.1673 8.57594 17.3895C8.86944 17.5041 9.11157 17.4038 9.19228 17.1171C9.30234 16.7373 9.39038 16.3504 9.49311 15.9705C9.55914 15.7269 9.40506 15.5764 9.20695 15.3327C7.64411 13.4194 8.4292 9.23427 11.8924 7.67203C14.908 6.31045 19.6626 7.22056 19.9194 11.4558C20.0515 13.577 19.3618 16.5725 17.6008 17.8266C15.6858 19.181 13.4479 17.8624 13.9322 16.0064C14.5118 13.7562 15.2676 12.2369 14.9814 11.0688C14.5192 9.1841 11.8704 9.36326 11.1367 11.6421C10.7991 12.6956 10.8725 13.7418 11.2614 14.7666C11.2981 14.8598 11.3201 14.9458 11.2981 15.0461C9.6692 21.7322 9.51512 22.155 9.4711 23.3876C9.4691 23.4363 9.46765 23.485 9.46668 23.5337C9.45545 24.1003 9.81254 24.6065 10.3447 24.8014C10.6915 24.9284 11.0843 24.7915 11.2732 24.4742C11.2966 24.4348 11.3196 24.3952 11.3421 24.355C12.1712 22.9218 12.2593 22.2338 13.0664 19.1523H13.059Z" fill="white"/>
</svg>
