<svg width="24" height="12" viewBox="0 0 24 24" fill="none" xmlns="http://www.w3.org/2000/svg">
<path d="M20.5986 12.4765C20.5631 12.5623 20.512 12.6397 20.4476 12.704L13.9172 19.2344C13.781 19.3707 13.6018 19.4397 13.4227 19.4397C13.2436 19.4397 13.0644 19.3716 12.9282 19.2344C12.6549 18.9611 12.6549 18.5179 12.9282 18.2446L18.2645 12.9083L3.16062 12.9083C2.7744 12.9083 2.46094 12.5949 2.46094 12.2087C2.46094 11.8224 2.7744 11.509 3.16062 11.509L18.2636 11.509L12.9273 6.17271C12.654 5.89937 12.654 5.4562 12.9273 5.18285C13.2007 4.90951 13.6438 4.90951 13.9172 5.18285L20.4476 11.7133C20.512 11.7776 20.5631 11.855 20.5986 11.9408C20.6695 12.1125 20.6695 12.3048 20.5986 12.4765Z" fill="black"/>
</svg>
