<svg width="24" height="12" viewBox="0 0 24 24" fill="none" xmlns="http://www.w3.org/2000/svg">
<path d="M3.4014 11.5235C3.43686 11.4377 3.48804 11.3603 3.55241 11.296L10.0828 4.76555C10.219 4.62934 10.3982 4.56034 10.5773 4.56034C10.7564 4.56034 10.9356 4.62841 11.0718 4.76555C11.3451 5.0389 11.3451 5.48206 11.0718 5.75541L5.73552 11.0917L20.8394 11.0917C21.2256 11.0917 21.5391 11.4051 21.5391 11.7913C21.5391 12.1776 21.2256 12.491 20.8394 12.491L5.73643 12.491L11.0727 17.8273C11.346 18.1006 11.346 18.5438 11.0727 18.8171C10.7993 19.0905 10.3562 19.0905 10.0828 18.8171L3.55241 12.2867C3.48804 12.2224 3.43686 12.145 3.4014 12.0592C3.3305 11.8875 3.3305 11.6952 3.4014 11.5235Z" fill="black"/>
</svg>
