<svg width="16" height="16" viewBox="0 0 16 16" fill="none" xmlns="http://www.w3.org/2000/svg">
<path d="M7.52447 1.46352C7.67415 1.00287 8.32585 1.00287 8.47553 1.46353L9.68386 5.18237C9.75079 5.38838 9.94277 5.52786 10.1594 5.52786H14.0696C14.554 5.52786 14.7554 6.14767 14.3635 6.43237L11.2001 8.73075C11.0248 8.85807 10.9515 9.08375 11.0184 9.28976L12.2268 13.0086C12.3764 13.4693 11.8492 13.8523 11.4573 13.5676L8.29389 11.2693C8.11865 11.1419 7.88135 11.1419 7.70611 11.2693L4.54267 13.5676C4.15081 13.8523 3.62357 13.4693 3.77325 13.0086L4.98157 9.28976C5.04851 9.08375 4.97518 8.85807 4.79994 8.73075L1.6365 6.43237C1.24464 6.14767 1.44603 5.52786 1.93039 5.52786H5.84062C6.05723 5.52786 6.24921 5.38838 6.31614 5.18237L7.52447 1.46352Z" fill="#E59819"/>
<path d="M8.5 1.49992L9.68463 5.18095C9.75115 5.38765 9.94346 5.52778 10.1606 5.52778H14.0697C14.5541 5.52778 14.7555 6.14759 14.3636 6.43229L11.2002 8.73066C11.025 8.85799 10.9516 9.08367 11.0186 9.28968L12.2269 13.0085C12.3766 13.4692 11.8493 13.8522 11.4575 13.5675L8.00013 11.0556V1.11502C8.00013 1.11457 8.00044 1.11419 8.00088 1.11409L8.01265 1.1114C8.26217 1.05436 8.5 1.24396 8.5 1.49992Z" fill="white"/>
</svg>
