<svg width="249" height="249" viewBox="0 0 249 249" fill="none" xmlns="http://www.w3.org/2000/svg">
<path d="M220.174 71.1167C220.174 71.9326 220.446 73.2927 220.174 74.1087C215.822 82.5407 211.062 90.8368 206.71 99.2688C202.358 107.701 198.55 116.405 192.158 123.613C189.166 126.877 186.038 130.005 182.638 132.589C172.709 140.613 164.957 150.541 157.885 161.149C148.909 174.749 137.893 186.581 126.061 197.869C121.981 201.677 118.037 205.621 113.957 209.701C113.277 210.381 112.461 210.925 111.509 211.333C110.013 212.013 106.885 210.789 106.205 209.293C105.389 207.661 105.389 206.573 107.701 206.981C108.109 207.117 108.653 206.573 108.925 206.301C117.221 197.189 124.293 187.397 131.365 177.333C137.485 168.493 144.285 160.061 150.677 151.493C153.805 147.277 156.253 142.381 159.653 138.437C163.733 133.541 168.221 128.781 173.389 124.701C183.182 117.085 190.39 107.701 195.694 96.4128C197.462 92.7408 199.23 88.7968 201.27 85.1247C203.446 81.5887 206.166 78.3247 208.478 74.9247C208.886 74.2447 209.158 73.4287 209.702 72.8847C211.606 70.4366 216.366 68.9406 219.358 70.0286C219.222 70.1646 219.494 70.4366 220.174 71.1167Z" fill="black"/>
<path d="M77.918 210.382C73.8379 205.214 77.782 201.814 79.822 198.414C81.454 195.422 83.902 192.974 86.078 190.254C88.254 187.262 90.294 184.406 92.6061 181.55C93.8301 180.054 95.5981 178.83 96.8221 177.334C98.7261 175.158 100.63 172.982 102.534 170.806C108.518 164.278 114.502 158.022 120.214 151.221C125.79 144.285 131.094 136.805 136.398 129.597C141.974 121.845 147.278 114.093 152.854 106.613C156.662 101.445 160.742 96.5492 164.414 91.2451C169.039 84.7171 173.391 78.189 178.151 71.797C179.239 70.165 181.959 69.349 182.231 67.717C183.727 61.8689 187.671 57.6529 190.663 52.7569C191.479 51.3969 192.839 50.5809 194.607 49.0849C194.199 46.7729 195.967 44.4609 197.871 42.2848C199.095 40.7888 199.775 38.7488 200.727 36.9808C202.223 34.6688 203.447 31.8128 207.119 33.5808C206.983 34.2608 206.711 34.8048 206.439 35.8928C207.255 35.3488 207.663 35.2128 208.207 34.9408C208.343 35.0768 208.479 35.2128 208.479 35.2128C207.119 37.9328 205.759 40.6528 204.127 43.3728C200.183 50.0369 196.239 56.7009 192.295 63.365C186.175 73.565 180.599 84.0371 173.935 93.9651C168.495 102.397 161.966 110.285 155.982 118.445C149.318 127.557 143.062 136.805 135.99 145.509C128.918 154.214 121.302 162.374 113.686 170.534C103.214 181.55 92.1981 192.022 83.222 204.262C81.59 206.166 79.822 208.206 77.918 210.382Z" fill="black"/>
<path fill-rule="evenodd" clip-rule="evenodd" d="M27.2762 200.144C27.4537 200.486 27.6615 200.887 27.8692 201.406C28.5544 200.721 29.2548 200.051 29.95 199.387C31.3248 198.072 32.679 196.777 33.8533 195.422C39.0893 189.37 44.2573 183.25 49.4254 177.13C54.5934 171.01 59.7614 164.89 64.9975 158.838C72.7193 149.816 80.6354 140.891 88.5426 131.976C93.8657 125.974 99.1847 119.977 104.438 113.958C115.59 101.174 126.062 87.7097 134.902 73.1576C141.255 62.8475 147.288 52.378 153.308 41.9322C155.15 38.7366 156.99 35.5432 158.838 32.3574C160.999 28.5953 162.972 24.739 164.95 20.8717C166.333 18.1681 167.719 15.4592 169.174 12.7732C170.126 11.0052 169.582 9.37321 167.95 9.10123C167.828 9.07688 167.701 9.04928 167.57 9.02074C166.233 8.73039 164.453 8.34392 163.462 10.3252L163.462 10.3253C161.422 14.5413 159.382 18.7573 157.07 22.7013C152.038 30.9974 146.87 39.4294 141.702 47.5894C140.478 49.6295 139.107 51.5226 137.736 53.4157C136.822 54.6778 135.908 55.9399 135.038 57.2455C134.167 58.6599 133.341 60.1178 132.514 61.5758C131.273 63.7627 130.033 65.9496 128.646 67.9896C126.783 70.9702 124.729 73.8871 122.658 76.8276C121.705 78.1804 120.749 79.5383 119.806 80.9096C117.63 84.1737 115.454 87.1657 113.006 90.1577L113.006 90.1579C110.15 93.8299 107.294 97.5018 104.302 101.038L96.5497 110.422C92.4696 115.046 88.3896 119.67 84.4456 124.158C81.4536 127.422 78.7335 130.686 76.1495 134.086C75.5375 134.834 74.9595 135.684 74.3815 136.534C73.8035 137.384 73.2255 138.234 72.6135 138.982C71.8655 139.866 71.0155 140.648 70.1655 141.43C69.3155 142.212 68.4655 142.994 67.7175 143.878C65.9375 145.836 64.2158 147.969 62.4762 150.124C61.5573 151.262 60.6335 152.406 59.6934 153.534C58.5964 154.814 57.4533 156.078 56.3055 157.348C54.038 159.856 51.7518 162.385 49.7654 165.094C44.4675 172.065 39.3602 179.099 34.2698 186.111C31.9117 189.358 29.5573 192.601 27.1892 195.83C26.6452 196.374 26.6452 197.734 26.7812 198.686C26.7812 199.191 26.989 199.591 27.2762 200.144ZM115.25 97.161C116.542 95.665 117.834 94.169 119.126 92.7409C117.894 94.4078 116.623 96.036 115.335 97.6873C114.205 99.1349 113.062 100.6 111.918 102.125L111.374 101.581C112.666 100.153 113.958 98.657 115.25 97.161ZM119.126 92.7409C119.262 92.4689 119.296 92.1629 119.33 91.8569C119.364 91.5509 119.398 91.2449 119.534 90.9729C121.37 88.4569 123.138 85.9409 124.906 83.4249C126.674 80.9089 128.442 78.3929 130.278 75.8768C130.55 75.6048 130.822 75.3328 131.502 75.4688L128.238 80.3649C125.11 84.5809 122.118 88.6609 119.126 92.7409Z" fill="black"/>
<path d="M184.636 47.468C184.5 47.876 184.364 48.556 184.092 49.1C184.5 48.964 184.908 48.828 185.588 48.42C185.452 49.1 185.452 49.644 185.316 50.052C180.556 57.5321 176.34 65.2841 171.172 72.3561C163.692 82.5562 155.396 92.2123 147.508 102.004C138.123 113.564 128.603 124.988 119.763 136.821C106.979 153.957 92.4272 169.597 77.6031 184.965C73.3871 189.453 68.7631 193.533 64.003 197.477C61.963 199.245 59.107 200.197 56.523 201.693C56.115 200.197 55.571 199.109 55.571 198.293C55.571 197.477 56.115 196.117 56.795 195.981C61.963 194.077 64.955 189.725 68.6271 186.053C74.2031 180.477 79.3711 174.765 84.6752 168.917C88.3472 164.701 91.7472 159.941 95.1472 155.453C98.6832 150.829 102.355 146.341 105.619 141.717C109.019 136.957 112.147 132.196 115.547 127.436C121.395 119.684 127.379 111.796 133.499 104.316C140.299 96.1563 147.508 88.4042 154.308 80.2442C159.34 74.3961 163.828 68.2761 168.588 62.1561C171.58 58.3481 174.436 54.132 177.292 50.188C179.196 47.468 181.236 45.972 184.636 47.468Z" fill="black"/>
</svg>
