<svg width="20" height="25" viewBox="0 0 20 25" fill="none" xmlns="http://www.w3.org/2000/svg">
<path opacity="0.3" fill-rule="evenodd" clip-rule="evenodd" d="M2.00119 0.530273L9.50523 0.530273C9.82863 0.530273 10.1416 0.644872 10.3885 0.853725L15.6793 5.32883C15.9865 5.5887 16.1637 5.97068 16.1637 6.37308L16.1637 20.0165C16.1637 21.946 16.1417 22.0819 14.1625 22.0819L2.00119 22.0819C0.0220037 22.0819 -3.05176e-05 21.946 -3.05176e-05 20.0165L-3.05176e-05 2.59564C-3.05176e-05 0.666183 0.0220037 0.530273 2.00119 0.530273ZM4.31033 13.2961C4.31033 12.7925 4.71856 12.3843 5.22213 12.3843L13.0968 12.3843C13.6003 12.3843 14.0086 12.7925 14.0086 13.2961V13.6276C14.0086 14.1312 13.6003 14.5394 13.0968 14.5394L5.22213 14.5394C4.71856 14.5394 4.31033 14.1312 4.31033 13.6276V13.2961ZM5.22213 16.6946C4.71856 16.6946 4.31033 17.1028 4.31033 17.6064V17.9379C4.31033 18.4415 4.71856 18.8497 5.22213 18.8497H8.78644C9.29001 18.8497 9.69824 18.4415 9.69824 17.9379V17.6064C9.69824 17.1028 9.29001 16.6946 8.78644 16.6946H5.22213Z" fill="black"/>
<path fill-rule="evenodd" clip-rule="evenodd" d="M4.15732 2.68311L12.7389 2.68311C13.0623 2.68311 13.3753 2.7977 13.6222 3.00656L18.913 7.48166C19.2202 7.74153 19.3974 8.12351 19.3974 8.52591L19.3974 22.1694C19.3974 24.0988 19.3754 24.2347 17.3962 24.2347L4.15732 24.2347C2.17813 24.2347 2.1561 24.0988 2.1561 22.1694L2.1561 4.74847C2.1561 2.81902 2.17813 2.68311 4.15732 2.68311ZM4.3143 13.2938C4.3143 12.7902 4.72253 12.382 5.2261 12.382L13.1007 12.382C13.6043 12.382 14.0125 12.7902 14.0125 13.2938V13.6253C14.0125 14.1289 13.6043 14.5371 13.1007 14.5371L5.2261 14.5371C4.72253 14.5371 4.3143 14.1289 4.3143 13.6253V13.2938ZM5.22207 16.6903C4.7185 16.6903 4.31027 17.0985 4.31027 17.6021V17.9337C4.31027 18.4372 4.7185 18.8455 5.22207 18.8455H8.78638C9.28995 18.8455 9.69818 18.4372 9.69818 17.9337V17.6021C9.69818 17.0985 9.28995 16.6903 8.78638 16.6903H5.22207Z" fill="black"/>
</svg>
