<svg width="237" height="227" viewBox="0 0 237 227" fill="none" xmlns="http://www.w3.org/2000/svg">
<rect x="2.5" y="2.5" width="232" height="222" rx="19.5" fill="white" stroke="black"/>
<rect x="1" y="1" width="235" height="225" rx="21" fill="white" stroke="black" stroke-width="2"/>
<path d="M44.6337 107.062C43.9902 119.254 39.5395 124.976 37.3945 126.312V191.284H194.242V126.312C189.416 126.312 183.786 121.5 185.395 115.083C187.003 108.666 187.808 102.249 178.96 99.0405C170.112 95.832 169.308 111.072 163.677 115.083C150.808 123.104 141.96 115.083 139.547 99.0405C137.134 82.9981 129.895 70.1643 122.655 71.7685C115.416 73.3727 110.59 85.4045 107.373 95.0299C104.155 104.655 96.9163 121.5 95.3076 126.312C93.6989 131.125 84.8511 134.334 82.4381 123.906C80.025 113.479 71.9815 115.885 68.7641 115.083C65.5467 114.281 65.5467 108.666 65.5467 105.457C65.5467 102.249 65.5467 101.447 61.525 95.0299C57.5032 88.613 45.438 91.8214 44.6337 107.062Z" fill="url(#paint0_linear_326_298)"/>
<path fill-rule="evenodd" clip-rule="evenodd" d="M97.7609 122.894C96.8027 124.984 95.8584 126.723 94.9308 127.911C93.121 130.228 91.2835 131.33 89.4293 131.327C87.5969 131.323 86.0272 130.237 84.7473 128.838C82.1938 126.046 80.3107 121.472 79.2654 118.894C78.8759 117.934 78.017 117.383 76.6835 117.034C75.6536 116.765 74.4832 116.65 73.231 116.527C72.8269 116.487 72.4143 116.447 71.9951 116.4C70.354 116.217 68.6022 115.934 67.2676 115.095C66.581 114.664 65.9976 114.083 65.5956 113.299C65.1959 112.52 64.9984 111.586 65.0115 110.48C65.0585 106.503 64.6231 102.389 63.2973 99.142C61.9813 95.9195 59.8336 93.6384 56.4512 93.0663C53.1417 92.5065 50.3767 94.2545 48.3761 97.4103C46.3701 100.575 45.2335 105.035 45.2527 109.477C45.2692 113.285 44.1133 116.981 42.6886 120.033C41.2633 123.087 39.5447 125.548 38.3753 126.9L37.1569 125.852C38.2281 124.614 39.8664 122.278 41.23 119.356C42.5941 116.433 43.6591 112.977 43.644 109.484C43.6237 104.801 44.8144 100.026 47.0162 96.5528C49.2235 93.0709 52.5468 90.7789 56.7198 91.4847C60.8199 92.1782 63.3349 94.981 64.7872 98.5375C66.2298 102.07 66.6682 106.43 66.6201 110.499C66.6094 111.405 66.7716 112.07 67.0278 112.569C67.2816 113.064 67.6503 113.44 68.1248 113.738C69.1124 114.359 70.5187 114.621 72.1738 114.806C72.5357 114.846 72.9107 114.883 73.292 114.92C74.5732 115.046 75.9253 115.178 77.0909 115.483C78.6323 115.885 80.0886 116.646 80.7568 118.293C81.8271 120.932 83.6126 125.217 85.9358 127.757C87.0943 129.023 88.2649 129.72 89.4318 129.723C90.5768 129.725 91.9974 129.055 93.6615 126.925C94.4709 125.889 95.353 124.287 96.2978 122.227C97.2376 120.177 98.2197 117.718 99.2386 114.997C100.424 111.832 101.646 108.346 102.905 104.759C103.816 102.159 104.747 99.5057 105.696 96.8819C107.943 90.6681 110.281 84.6523 112.655 80.1098C113.841 77.8403 115.055 75.9023 116.294 74.4839C117.517 73.0839 118.863 72.0767 120.332 71.895C122.688 71.6036 124.856 71.4692 126.838 71.9335C128.86 72.4072 130.635 73.4895 132.235 75.5147C133.815 77.5147 135.22 80.4269 136.562 84.564C137.907 88.7081 139.204 94.1323 140.543 101.194C141.862 108.147 144.172 112.457 146.833 114.923C149.469 117.367 152.521 118.066 155.517 117.663C158.539 117.256 161.517 115.721 163.894 113.675C166.279 111.623 167.978 109.129 168.536 106.888C169.422 103.332 171.081 100.978 173.128 99.6506C175.175 98.3243 177.518 98.0838 179.65 98.5881C183.832 99.5775 187.502 103.57 186.425 108.263C185.501 112.288 185.603 116.486 186.86 119.644C188.099 122.757 190.426 124.821 194.069 124.865L194.05 126.47C189.625 126.416 186.793 123.824 185.365 120.236C183.955 116.694 183.882 112.148 184.857 107.904C185.678 104.328 182.884 101.002 179.279 100.149C177.516 99.732 175.635 99.9394 174.005 100.996C172.377 102.051 170.91 104.014 170.097 107.275C169.435 109.933 167.496 112.695 164.945 114.89C162.386 117.091 159.128 118.795 155.733 119.252C152.312 119.713 148.764 118.903 145.738 116.097C142.735 113.314 140.318 108.634 138.963 101.492C137.629 94.4592 136.346 89.1094 135.032 85.0572C133.715 80.998 132.381 78.2915 130.972 76.5072C129.582 74.7481 128.115 73.8803 126.471 73.4952C124.786 73.1006 122.863 73.1984 120.531 73.487C119.655 73.5953 118.643 74.2379 117.507 75.5377C116.388 76.8191 115.243 78.631 114.082 80.8516C111.762 85.2895 109.455 91.2152 107.209 97.4264C106.273 100.015 105.346 102.658 104.434 105.257C103.169 108.865 101.933 112.388 100.746 115.558C99.7214 118.294 98.724 120.794 97.7609 122.894Z" fill="#ABAFFC"/>
<path d="M42.0832 123.859C42.0832 125.631 40.6427 127.067 38.8658 127.067C37.0889 127.067 35.6484 125.631 35.6484 123.859C35.6484 122.087 37.0889 120.65 38.8658 120.65C40.6427 120.65 42.0832 122.087 42.0832 123.859Z" fill="#F3F3FE"/>
<path fill-rule="evenodd" clip-rule="evenodd" d="M38.8655 121.451C37.5328 121.451 36.4524 122.528 36.4524 123.857C36.4524 125.186 37.5328 126.264 38.8655 126.264C40.1982 126.264 41.2785 125.186 41.2785 123.857C41.2785 122.528 40.1982 121.451 38.8655 121.451ZM34.8438 123.857C34.8438 121.642 36.6443 119.847 38.8655 119.847C41.0866 119.847 42.8872 121.642 42.8872 123.857C42.8872 126.072 41.0866 127.868 38.8655 127.868C36.6443 127.868 34.8438 126.072 34.8438 123.857Z" fill="#6970F6"/>
<path d="M69.4309 104.607C69.4309 106.379 67.9904 107.815 66.2135 107.815C64.4366 107.815 62.9961 106.379 62.9961 104.607C62.9961 102.835 64.4366 101.398 66.2135 101.398C67.9904 101.398 69.4309 102.835 69.4309 104.607Z" fill="#F3F3FE"/>
<path fill-rule="evenodd" clip-rule="evenodd" d="M66.2131 102.202C64.8805 102.202 63.8001 103.279 63.8001 104.608C63.8001 105.937 64.8805 107.015 66.2131 107.015C67.5458 107.015 68.6262 105.937 68.6262 104.608C68.6262 103.279 67.5458 102.202 66.2131 102.202ZM62.1914 104.608C62.1914 102.393 63.992 100.598 66.2131 100.598C68.4343 100.598 70.2349 102.393 70.2349 104.608C70.2349 106.823 68.4343 108.619 66.2131 108.619C63.992 108.619 62.1914 106.823 62.1914 104.608Z" fill="#6970F6"/>
<path d="M125.736 74.1274C125.736 75.8994 124.295 77.3359 122.518 77.3359C120.741 77.3359 119.301 75.8994 119.301 74.1274C119.301 72.3554 120.741 70.9189 122.518 70.9189C124.295 70.9189 125.736 72.3554 125.736 74.1274Z" fill="#F3F3FE"/>
<path fill-rule="evenodd" clip-rule="evenodd" d="M122.518 71.7204C121.185 71.7204 120.105 72.7978 120.105 74.1268C120.105 75.4558 121.185 76.5332 122.518 76.5332C123.851 76.5332 124.931 75.4558 124.931 74.1268C124.931 72.7978 123.851 71.7204 122.518 71.7204ZM118.496 74.1268C118.496 71.9118 120.297 70.1162 122.518 70.1162C124.739 70.1162 126.54 71.9118 126.54 74.1268C126.54 76.3418 124.739 78.1374 122.518 78.1374C120.297 78.1374 118.496 76.3418 118.496 74.1268Z" fill="#6970F6"/>
<path d="M96.7785 128.671C96.7785 130.443 95.3381 131.88 93.5611 131.88C91.7842 131.88 90.3438 130.443 90.3438 128.671C90.3438 126.899 91.7842 125.463 93.5611 125.463C95.3381 125.463 96.7785 126.899 96.7785 128.671Z" fill="#F3F3FE"/>
<path fill-rule="evenodd" clip-rule="evenodd" d="M93.5608 126.264C92.2281 126.264 91.1478 127.342 91.1478 128.671C91.1478 130 92.2281 131.077 93.5608 131.077C94.8935 131.077 95.9739 130 95.9739 128.671C95.9739 127.342 94.8935 126.264 93.5608 126.264ZM89.5391 128.671C89.5391 126.456 91.3397 124.66 93.5608 124.66C95.782 124.66 97.5825 126.456 97.5825 128.671C97.5825 130.886 95.782 132.681 93.5608 132.681C91.3397 132.681 89.5391 130.886 89.5391 128.671Z" fill="#6970F6"/>
<path d="M156.298 119.044C156.298 120.816 154.858 122.253 153.081 122.253C151.304 122.253 149.863 120.816 149.863 119.044C149.863 117.272 151.304 115.836 153.081 115.836C154.858 115.836 156.298 117.272 156.298 119.044Z" fill="#F3F3FE"/>
<path fill-rule="evenodd" clip-rule="evenodd" d="M153.08 116.638C151.748 116.638 150.667 117.716 150.667 119.045C150.667 120.374 151.748 121.451 153.08 121.451C154.413 121.451 155.493 120.374 155.493 119.045C155.493 117.716 154.413 116.638 153.08 116.638ZM149.059 119.045C149.059 116.83 150.859 115.034 153.08 115.034C155.301 115.034 157.102 116.83 157.102 119.045C157.102 121.26 155.301 123.055 153.08 123.055C150.859 123.055 149.059 121.26 149.059 119.045Z" fill="#6970F6"/>
<path d="M198.122 125.462C198.122 127.234 196.682 128.671 194.905 128.671C193.128 128.671 191.688 127.234 191.688 125.462C191.688 123.69 193.128 122.254 194.905 122.254C196.682 122.254 198.122 123.69 198.122 125.462Z" fill="#F3F3FE"/>
<path fill-rule="evenodd" clip-rule="evenodd" d="M194.908 123.056C193.576 123.056 192.495 124.134 192.495 125.463C192.495 126.792 193.576 127.869 194.908 127.869C196.241 127.869 197.322 126.792 197.322 125.463C197.322 124.134 196.241 123.056 194.908 123.056ZM190.887 125.463C190.887 123.248 192.687 121.452 194.908 121.452C197.13 121.452 198.93 123.248 198.93 125.463C198.93 127.678 197.13 129.473 194.908 129.473C192.687 129.473 190.887 127.678 190.887 125.463Z" fill="#6970F6"/>
<path d="M180.431 99.7954C180.431 101.567 178.99 103.004 177.213 103.004C175.437 103.004 173.996 101.567 173.996 99.7954C173.996 98.0234 175.437 96.5869 177.213 96.5869C178.99 96.5869 180.431 98.0234 180.431 99.7954Z" fill="#F3F3FE"/>
<path fill-rule="evenodd" clip-rule="evenodd" d="M177.213 97.3874C175.88 97.3874 174.8 98.4648 174.8 99.7938C174.8 101.123 175.88 102.2 177.213 102.2C178.546 102.2 179.626 101.123 179.626 99.7938C179.626 98.4648 178.546 97.3874 177.213 97.3874ZM173.191 99.7938C173.191 97.5788 174.992 95.7832 177.213 95.7832C179.434 95.7832 181.235 97.5788 181.235 99.7938C181.235 102.009 179.434 103.804 177.213 103.804C174.992 103.804 173.191 102.009 173.191 99.7938Z" fill="#6970F6"/>
<path d="M37.4167 143.965C36.8555 143.13 36.1478 143 35.3344 143C34.399 143 33.1464 143.373 33.1708 144.574C33.1708 145.62 34.2363 145.831 35.2775 146.034C36.2129 146.212 37.1564 146.399 37.1483 147.25C37.1483 148.256 36.0339 148.451 35.3344 148.451C34.6349 148.451 33.7402 148.11 33.3904 147.421L33 147.615C33.4392 148.483 34.4478 148.848 35.3344 148.848C36.2861 148.848 37.5794 148.54 37.5875 147.258C37.5875 146.034 36.4488 145.839 35.3507 145.628C34.3909 145.45 33.61 145.279 33.61 144.557C33.61 143.649 34.6674 143.406 35.3344 143.406C35.977 143.414 36.644 143.511 37.0588 144.176L37.4167 143.965Z" fill="#2B59FF"/>
<path d="M42.2425 148.759V144.744H41.8439V146.975C41.8439 147.802 41.2664 148.426 40.4368 148.435C39.5664 148.443 39.0052 147.956 39.0052 147.048V144.744H38.6066V147.056C38.6066 148.167 39.3468 148.824 40.4205 148.824C40.9817 148.816 41.543 148.589 41.8521 148.037V148.759H42.2425Z" fill="#2B59FF"/>
<path d="M43.2933 144.752V148.759H43.6919V146.528C43.6919 145.701 44.2694 145.076 45.0991 145.068C45.9694 145.06 46.5306 145.547 46.5306 146.455V148.759H46.9292V146.447C46.9292 145.336 46.189 144.679 45.1153 144.679C44.5541 144.687 43.9929 144.914 43.6838 145.466V144.752H43.2933Z" fill="#2B59FF"/>
<path d="M64.1452 148.759H64.5763V143.081H64.0395L61.884 146.39L59.7042 143.081C59.4927 143.081 59.3951 143.081 59.1836 143.081V148.759H59.6228V143.714L61.819 147.039H61.9654L64.1452 143.714V148.759Z" fill="#2B59FF"/>
<path d="M67.6132 148.816C68.7438 148.816 69.6548 148.037 69.6548 146.764C69.6548 145.49 68.7438 144.679 67.6132 144.679C66.4826 144.679 65.5716 145.49 65.5716 146.764C65.5716 148.037 66.4826 148.816 67.6132 148.816ZM67.6132 148.426C66.7022 148.426 65.962 147.802 65.962 146.764C65.962 145.725 66.7022 145.052 67.6132 145.052C68.5242 145.052 69.2644 145.725 69.2644 146.764C69.2644 147.802 68.5242 148.426 67.6132 148.426Z" fill="#2B59FF"/>
<path d="M70.5723 144.752V148.759H70.9708V146.528C70.9708 145.701 71.5483 145.076 72.378 145.068C73.2483 145.06 73.8095 145.547 73.8095 146.455V148.759H74.2081V146.447C74.2081 145.336 73.4679 144.679 72.3943 144.679C71.833 144.687 71.2718 144.914 70.9627 145.466V144.752H70.5723Z" fill="#2B59FF"/>
<path d="M89.4524 148.76H89.8916V143.479H91.9495V143.09H87.3945V143.479H89.4524V148.76Z" fill="#2B59FF"/>
<path d="M95.4075 148.76V144.745H95.009V146.975C95.009 147.803 94.4315 148.427 93.6018 148.435C92.7315 148.443 92.1703 147.957 92.1703 147.048V144.745H91.7717V147.056C91.7717 148.168 92.5119 148.825 93.5855 148.825C94.1468 148.816 94.708 148.589 95.0171 148.038V148.76H95.4075Z" fill="#2B59FF"/>
<path d="M98.2722 148.816C98.9148 148.816 99.6143 148.557 100.005 148.046L99.7201 147.819C99.4191 148.216 98.8009 148.427 98.2722 148.427C97.4426 148.427 96.7187 147.884 96.6373 146.943H100.257C100.411 145.377 99.4028 144.688 98.2722 144.688C97.1416 144.688 96.2306 145.556 96.2306 146.756C96.2306 148.03 97.1416 148.816 98.2722 148.816ZM96.6373 146.594C96.7268 145.612 97.4426 145.053 98.2722 145.053C99.2402 145.053 99.8909 145.604 99.899 146.594H96.6373Z" fill="#2B59FF"/>
<path d="M116.49 148.272L114.733 143.081H114.27L116.262 148.775H116.734L117.645 146.098L118.361 143.868L119.077 146.115L119.98 148.775H120.451L122.46 143.081H121.989L120.224 148.272L118.483 143.081H118.239L116.49 148.272Z" fill="#2B59FF"/>
<path d="M124.29 148.816C124.932 148.816 125.632 148.556 126.022 148.045L125.738 147.818C125.437 148.216 124.818 148.426 124.29 148.426C123.46 148.426 122.736 147.883 122.655 146.942H126.274C126.429 145.377 125.42 144.687 124.29 144.687C123.159 144.687 122.248 145.555 122.248 146.755C122.248 148.029 123.159 148.816 124.29 148.816ZM122.655 146.593C122.744 145.612 123.46 145.052 124.29 145.052C125.258 145.052 125.908 145.604 125.917 146.593H122.655Z" fill="#2B59FF"/>
<path d="M129.119 145.068C130.046 145.068 130.762 145.75 130.762 146.747C130.762 147.745 130.063 148.435 129.119 148.435C128.216 148.435 127.476 147.867 127.476 146.755C127.476 145.628 128.216 145.068 129.119 145.068ZM130.77 143.081V145.628C130.445 144.979 129.794 144.687 129.103 144.687C127.98 144.687 127.086 145.433 127.086 146.755C127.086 148.086 127.972 148.824 129.095 148.824C129.778 148.824 130.437 148.483 130.77 147.875V148.759H131.161V143.081H130.77Z" fill="#2B59FF"/>
<path d="M146.277 148.76H146.716V143.479H148.774V143.09H144.219V143.479H146.277V148.76Z" fill="#2B59FF"/>
<path d="M149.533 143.082V148.76H149.932V146.562C149.932 145.726 150.518 145.077 151.364 145.077C152.266 145.077 152.657 145.637 152.657 146.464V148.76H153.047V146.464C153.047 145.418 152.486 144.696 151.364 144.696C150.802 144.704 150.241 144.923 149.916 145.499V143.082H149.533Z" fill="#2B59FF"/>
<path d="M157.633 148.76V144.745H157.235V146.975C157.235 147.803 156.657 148.427 155.827 148.435C154.957 148.444 154.396 147.957 154.396 147.048V144.745H153.997V147.057C153.997 148.168 154.737 148.825 155.811 148.825C156.372 148.817 156.934 148.59 157.243 148.038V148.76H157.633Z" fill="#2B59FF"/>
<path d="M170.709 143.52H174.101V143.082H170.27V148.768H170.709V146.197H173.987V145.783H170.709V143.52Z" fill="#2B59FF"/>
<path d="M174.994 144.753V148.76H175.393V146.424C175.393 145.694 175.97 145.094 176.718 145.086C176.954 145.086 177.19 145.142 177.402 145.272L177.581 144.948C177.312 144.785 177.019 144.704 176.718 144.712C176.206 144.712 175.637 144.923 175.384 145.467L175.368 144.753H174.994Z" fill="#2B59FF"/>
<path d="M178.578 144.737V148.76H178.179V144.737H178.578ZM178.065 143.447C178.065 143.869 178.708 143.869 178.708 143.447C178.708 143.025 178.065 143.025 178.065 143.447Z" fill="#2B59FF"/>
<path d="M194.913 143.966C194.352 143.131 193.644 143.001 192.831 143.001C191.895 143.001 190.643 143.374 190.667 144.575C190.667 145.621 191.732 145.832 192.774 146.035C193.709 146.213 194.653 146.4 194.644 147.251C194.644 148.257 193.53 148.452 192.831 148.452C192.131 148.452 191.236 148.111 190.887 147.422L190.496 147.616C190.935 148.484 191.944 148.849 192.831 148.849C193.782 148.849 195.075 148.541 195.084 147.259C195.084 146.035 193.945 145.84 192.847 145.629C191.887 145.451 191.106 145.28 191.106 144.558C191.106 143.65 192.164 143.407 192.831 143.407C193.473 143.415 194.14 143.512 194.555 144.177L194.913 143.966Z" fill="#2B59FF"/>
<path d="M199.663 144.753V145.629C199.33 145.004 198.671 144.704 198.02 144.704C196.898 144.704 195.979 145.532 195.979 146.757C195.979 147.981 196.898 148.825 198.02 148.825C198.671 148.825 199.273 148.533 199.663 147.908V148.76H200.062C200.062 147.422 200.062 146.091 200.062 144.753H199.663ZM198.02 145.086C200.257 145.086 200.257 148.436 198.02 148.436C197.109 148.436 196.377 147.762 196.377 146.757C196.377 145.751 197.109 145.086 198.02 145.086Z" fill="#2B59FF"/>
<path d="M201.501 143.585V144.753H200.647V145.086H201.501V147.527C201.501 148.314 201.777 148.817 202.631 148.817C202.884 148.817 203.136 148.736 203.388 148.614L203.25 148.29C203.046 148.387 202.827 148.452 202.631 148.452C202.005 148.452 201.891 148.071 201.891 147.527V145.086H203.258V144.753H201.891V143.544L201.501 143.585Z" fill="#2B59FF"/>
<g filter="url(#filter0_b_326_298)">
<path d="M30.8242 181.748C30.8242 178.204 33.7052 175.331 37.259 175.331H104.824C108.378 175.331 111.259 178.204 111.259 181.748V194.582C111.259 198.126 108.378 200.999 104.824 200.999H37.259C33.7052 200.999 30.8242 198.126 30.8242 194.582V181.748Z" fill="#5B90FD" fill-opacity="0.11"/>
</g>
<g filter="url(#filter1_b_326_298)">
<path d="M124.129 181.749C124.129 178.205 127.01 175.332 130.564 175.332H198.129C201.683 175.332 204.564 178.205 204.564 181.749V194.583C204.564 198.127 201.683 201 198.129 201H130.564C127.01 201 124.129 198.127 124.129 194.583V181.749Z" fill="#5B90FD" fill-opacity="0.11"/>
</g>
<path d="M159.594 184.542V185.406C158.785 185.458 157.81 185.916 157.832 187.039C157.861 188.171 158.778 188.378 159.702 188.594C160.533 188.784 161.37 188.983 161.363 189.89C161.363 190.806 160.374 191.073 159.753 191.073C159.139 191.073 158.337 190.84 158.034 190.132L157.688 190.339C158.034 191.151 158.857 191.488 159.594 191.523V192.361H159.912V191.523C160.735 191.479 161.746 191.039 161.753 189.898C161.753 188.594 160.742 188.387 159.767 188.162C158.915 187.972 158.236 187.782 158.222 187.021C158.2 186.132 159.161 185.838 159.753 185.838C160.294 185.847 160.988 186.063 161.262 186.676L161.602 186.451C161.277 185.743 160.569 185.449 159.919 185.406V184.542H159.594Z" fill="#2B59FF"/>
<path d="M162.142 191.497H164.236V191.091H163.384V185.449H162.142V185.864H162.994V191.091H162.142V191.497Z" fill="#2B59FF"/>
<path d="M164.511 191.497H166.606V191.091H165.753V185.449H164.511V185.864H165.364V191.091H164.511V191.497Z" fill="#2B59FF"/>
<path d="M167.177 191.237C167.177 191.402 167.256 191.505 167.35 191.549L167.126 192.266H167.437L167.726 191.384C167.74 191.333 167.748 191.289 167.748 191.237C167.748 190.788 167.177 190.788 167.177 191.237Z" fill="#2B59FF"/>
<path d="M168.919 187.747C168.919 185.164 172.024 185.173 172.024 187.747V189.19C172.024 191.773 168.919 191.782 168.919 189.19V187.747ZM168.536 189.19C168.536 192.361 172.407 192.352 172.407 189.19V187.747C172.407 184.585 168.536 184.577 168.536 187.747V189.19Z" fill="#2B59FF"/>
<path d="M173.503 187.747C173.503 185.164 176.608 185.173 176.608 187.747V189.19C176.608 191.773 173.503 191.782 173.503 189.19V187.747ZM173.12 189.19C173.12 192.361 176.991 192.352 176.991 189.19V187.747C176.991 184.585 173.12 184.577 173.12 187.747V189.19Z" fill="#2B59FF"/>
<path d="M178.087 187.747C178.087 185.164 181.192 185.173 181.192 187.747V189.19C181.192 191.773 178.087 191.782 178.087 189.19V187.747ZM177.704 189.19C177.704 192.361 181.575 192.352 181.575 189.19V187.747C181.575 184.585 177.704 184.577 177.704 187.747V189.19Z" fill="#2B59FF"/>
<path fill-rule="evenodd" clip-rule="evenodd" d="M159.669 184.542H160.422V185.373C161.052 185.457 161.738 185.761 162.078 186.459L162.181 186.669L161.465 187.114L161.362 186.899C161.257 186.677 161.063 186.513 160.817 186.402C160.572 186.292 160.291 186.243 160.041 186.239C159.767 186.239 159.415 186.304 159.141 186.456C158.87 186.607 158.718 186.816 158.725 187.102L158.725 187.104C158.728 187.237 158.76 187.333 158.811 187.41C158.864 187.49 158.946 187.563 159.065 187.63C159.312 187.768 159.663 187.853 160.096 187.943L160.097 187.943C160.12 187.948 160.143 187.953 160.166 187.958C160.623 188.057 161.126 188.165 161.517 188.403C161.727 188.531 161.915 188.702 162.05 188.939C162.185 189.176 162.257 189.464 162.257 189.809V189.811C162.252 190.449 161.943 190.889 161.538 191.163C161.203 191.391 160.796 191.512 160.415 191.557V192.361H159.669V191.558C158.95 191.478 158.15 191.133 157.786 190.332L157.688 190.116L158.417 189.707L158.514 189.919C158.634 190.181 158.859 190.371 159.144 190.495C159.429 190.62 159.755 190.671 160.042 190.671C160.333 190.671 160.702 190.612 160.989 190.461C161.274 190.312 161.438 190.101 161.438 189.801V189.799C161.439 189.634 161.401 189.514 161.339 189.418C161.275 189.319 161.177 189.233 161.04 189.156C160.76 188.998 160.375 188.912 159.951 188.821C159.94 188.819 159.927 188.816 159.916 188.814C159.473 188.717 158.993 188.611 158.62 188.39C158.424 188.274 158.248 188.121 158.119 187.909C157.989 187.697 157.915 187.439 157.907 187.133L157.907 187.131C157.894 186.503 158.184 186.06 158.575 185.78C158.899 185.548 159.295 185.422 159.669 185.373V184.542ZM158.335 187.115C158.335 187.117 158.335 187.118 158.335 187.119C158.341 187.344 158.393 187.509 158.472 187.637C158.552 187.768 158.668 187.874 158.82 187.965C159.134 188.151 159.557 188.245 160.028 188.348C160.029 188.348 160.031 188.349 160.032 188.349C160.032 188.349 160.032 188.349 160.032 188.349L160.034 188.349C160.44 188.437 160.888 188.533 161.232 188.726C161.408 188.824 161.569 188.955 161.686 189.136C161.805 189.32 161.869 189.542 161.867 189.802C161.867 189.803 161.867 189.802 161.867 189.802L161.828 189.803C161.828 189.802 161.828 189.802 161.828 189.801L161.867 189.802C161.867 189.803 161.867 189.802 161.867 189.802C161.867 189.804 161.867 189.806 161.867 189.808L161.828 189.808C161.828 189.808 161.828 189.807 161.828 189.808C161.828 189.806 161.828 189.805 161.828 189.803L161.652 189.801H161.828C161.827 189.538 161.773 189.345 161.688 189.197C161.603 189.046 161.477 188.926 161.313 188.826C160.982 188.625 160.538 188.529 160.053 188.424C160.042 188.422 160.031 188.419 160.021 188.417M160.05 191.1L160.191 191.093C160.58 191.074 161 190.967 161.317 190.752C161.625 190.542 161.825 190.24 161.828 189.808C161.828 189.808 161.828 189.809 161.828 189.809H161.867C161.863 190.364 161.534 190.706 161.171 190.897C160.861 191.059 160.498 191.131 160.194 191.148C160.161 191.15 160.129 191.151 160.097 191.152V191.102L160.05 191.1ZM159.987 191.152C160.005 191.152 160.024 191.153 160.042 191.153C160.06 191.153 160.079 191.152 160.097 191.152V191.88H159.987V191.152ZM158.245 190.341C158.435 190.628 158.706 190.82 158.988 190.944C159.281 191.072 159.6 191.133 159.89 191.148C159.922 191.15 159.955 191.151 159.987 191.152V191.103L160.05 191.1L159.891 191.093C159.264 191.066 158.624 190.824 158.283 190.32L158.419 190.243L158.323 190.028L158.169 190.117C158.168 190.116 158.168 190.115 158.167 190.113L157.977 190.223L158.072 190.438L158.245 190.341ZM158.245 190.341C158.203 190.278 158.166 190.21 158.133 190.138L158.169 190.117C158.202 190.189 158.24 190.256 158.283 190.32L158.245 190.341ZM159.987 192.12H159.883V191.88H159.987V192.12ZM160.097 192.12V191.88H160.201V192.12H160.097ZM161.867 189.809C161.867 189.809 161.867 189.808 161.867 189.808L162.042 189.809H161.867ZM158.335 187.115C158.328 186.693 158.514 186.395 158.806 186.185C159.107 185.969 159.514 185.856 159.895 185.833L160.048 185.824L160.196 185.833C160.738 185.867 161.274 186.07 161.582 186.491L161.448 186.575L161.551 186.785L161.74 186.672C161.74 186.67 161.739 186.669 161.738 186.668L161.891 186.574L161.787 186.364L161.62 186.467C161.45 186.228 161.218 186.064 160.976 185.956C160.724 185.843 160.451 185.784 160.2 185.765C160.165 185.763 160.131 185.761 160.097 185.76V185.023H160.208V184.783H160.097M172.236 185.942C172.646 186.362 172.91 186.985 172.91 187.791V189.145C172.91 189.95 172.646 190.573 172.236 190.993C171.829 191.409 171.292 191.613 170.761 191.614C170.23 191.614 169.693 191.411 169.286 190.995C168.876 190.575 168.611 189.951 168.611 189.145V187.791C168.611 186.984 168.876 186.36 169.286 185.94C169.693 185.524 170.23 185.321 170.761 185.321C171.292 185.322 171.829 185.526 172.236 185.942ZM176.82 185.942C177.23 186.362 177.494 186.985 177.494 187.791V189.145C177.494 189.95 177.23 190.573 176.82 190.993C176.413 191.409 175.876 191.613 175.345 191.614C174.814 191.614 174.277 191.411 173.87 190.995C173.46 190.575 173.195 189.951 173.195 189.145V187.791C173.195 186.984 173.46 186.36 173.87 185.94C174.277 185.524 174.814 185.321 175.345 185.321C175.876 185.322 176.413 185.526 176.82 185.942ZM181.404 185.942C181.814 186.362 182.078 186.985 182.078 187.791V189.145C182.078 189.95 181.814 190.573 181.404 190.993C180.997 191.409 180.46 191.613 179.929 191.614C179.398 191.614 178.861 191.411 178.454 190.995C178.044 190.575 177.779 189.951 177.779 189.145V187.791C177.779 186.984 178.044 186.36 178.454 185.94C178.861 185.524 179.398 185.321 179.929 185.321C180.46 185.322 180.997 185.526 181.404 185.942ZM162.217 185.393H163.887V190.688H165.438V186.264H164.586V185.393H166.257V190.688H167.109V191.55H162.217V190.688H163.069V186.264H162.217V185.393ZM169.839 186.605C169.595 186.858 169.422 187.246 169.422 187.791V189.145C169.422 189.691 169.595 190.081 169.839 190.335C170.086 190.593 170.421 190.726 170.761 190.725C171.101 190.725 171.435 190.591 171.682 190.333C171.927 190.078 172.099 189.689 172.099 189.145V187.791C172.099 187.249 171.927 186.861 171.683 186.607C171.435 186.349 171.101 186.216 170.761 186.216C170.421 186.215 170.086 186.348 169.839 186.605ZM174.423 186.605C174.179 186.858 174.006 187.246 174.006 187.791V189.145C174.006 189.691 174.179 190.081 174.423 190.335C174.67 190.593 175.005 190.726 175.345 190.725C175.684 190.725 176.019 190.591 176.266 190.333C176.511 190.078 176.683 189.689 176.683 189.145V187.791C176.683 187.249 176.511 186.861 176.267 186.607C176.019 186.349 175.685 186.216 175.345 186.216C175.004 186.215 174.67 186.348 174.423 186.605ZM179.007 186.605C178.763 186.858 178.59 187.246 178.59 187.791V189.145C178.59 189.691 178.763 190.081 179.007 190.335C179.254 190.593 179.589 190.726 179.929 190.725C180.268 190.725 180.603 190.591 180.85 190.333C181.095 190.078 181.267 189.689 181.267 189.145V187.791C181.267 187.249 181.095 186.861 180.851 186.607C180.603 186.349 180.269 186.216 179.929 186.216C179.588 186.215 179.254 186.348 179.007 186.605ZM168.089 190.648C168.191 190.748 168.251 190.894 168.251 191.066C168.251 191.146 168.238 191.213 168.218 191.28L168.215 191.292L167.872 192.271H167.107L167.381 191.446C167.304 191.353 167.252 191.225 167.252 191.066C167.252 190.894 167.312 190.748 167.414 190.648C167.512 190.552 167.635 190.509 167.751 190.509C167.868 190.509 167.991 190.552 168.089 190.648ZM167.697 191.01C167.691 191.015 167.68 191.027 167.68 191.066C167.68 191.094 167.687 191.107 167.691 191.113C167.695 191.12 167.704 191.128 167.716 191.133L167.797 191.168L167.813 191.122C167.821 191.096 167.822 191.082 167.822 191.066C167.822 191.027 167.811 191.015 167.806 191.01C167.797 191 167.778 190.99 167.751 190.99C167.725 190.99 167.706 191 167.697 191.01Z" fill="#2B59FF"/>
<rect x="26" y="26" width="49" height="22" rx="4" fill="#2B59FF"/>
<path d="M43.624 34.424L42.008 40H41.192L39.896 35.512L38.552 40L37.744 40.008L36.184 34.424H36.96L38.176 39.152L39.52 34.424H40.336L41.616 39.136L42.84 34.424H43.624ZM48.4207 37.64C48.4207 37.7787 48.4127 37.9253 48.3967 38.08H44.8927C44.9194 38.512 45.066 38.8507 45.3327 39.096C45.6047 39.336 45.9327 39.456 46.3167 39.456C46.6314 39.456 46.8927 39.384 47.1007 39.24C47.314 39.0907 47.4634 38.8933 47.5487 38.648H48.3327C48.2154 39.0693 47.9807 39.4133 47.6287 39.68C47.2767 39.9413 46.8394 40.072 46.3167 40.072C45.9007 40.072 45.5274 39.9787 45.1967 39.792C44.8714 39.6053 44.6154 39.3413 44.4287 39C44.242 38.6533 44.1487 38.2533 44.1487 37.8C44.1487 37.3467 44.2394 36.9493 44.4207 36.608C44.602 36.2667 44.8554 36.0053 45.1807 35.824C45.5114 35.6373 45.89 35.544 46.3167 35.544C46.7327 35.544 47.1007 35.6347 47.4207 35.816C47.7407 35.9973 47.986 36.248 48.1567 36.568C48.3327 36.8827 48.4207 37.24 48.4207 37.64ZM47.6687 37.488C47.6687 37.2107 47.6074 36.9733 47.4847 36.776C47.362 36.5733 47.194 36.4213 46.9807 36.32C46.7727 36.2133 46.5407 36.16 46.2847 36.16C45.9167 36.16 45.602 36.2773 45.3407 36.512C45.0847 36.7467 44.938 37.072 44.9007 37.488H47.6687ZM53.3816 37.64C53.3816 37.7787 53.3736 37.9253 53.3576 38.08H49.8536C49.8803 38.512 50.027 38.8507 50.2936 39.096C50.5656 39.336 50.8936 39.456 51.2776 39.456C51.5923 39.456 51.8536 39.384 52.0616 39.24C52.275 39.0907 52.4243 38.8933 52.5096 38.648H53.2936C53.1763 39.0693 52.9416 39.4133 52.5896 39.68C52.2376 39.9413 51.8003 40.072 51.2776 40.072C50.8616 40.072 50.4883 39.9787 50.1576 39.792C49.8323 39.6053 49.5763 39.3413 49.3896 39C49.203 38.6533 49.1096 38.2533 49.1096 37.8C49.1096 37.3467 49.2003 36.9493 49.3816 36.608C49.563 36.2667 49.8163 36.0053 50.1416 35.824C50.4723 35.6373 50.851 35.544 51.2776 35.544C51.6936 35.544 52.0616 35.6347 52.3816 35.816C52.7016 35.9973 52.947 36.248 53.1176 36.568C53.2936 36.8827 53.3816 37.24 53.3816 37.64ZM52.6296 37.488C52.6296 37.2107 52.5683 36.9733 52.4456 36.776C52.323 36.5733 52.155 36.4213 51.9416 36.32C51.7336 36.2133 51.5016 36.16 51.2456 36.16C50.8776 36.16 50.563 36.2773 50.3016 36.512C50.0456 36.7467 49.899 37.072 49.8616 37.488H52.6296ZM56.7906 40L55.0706 38.064V40H54.3426V34.08H55.0706V37.56L56.7586 35.616H57.7746L55.7106 37.8L57.7826 40H56.7906ZM59.1878 34.08V40H58.4598V34.08H59.1878ZM64.2045 35.616L61.5645 42.064H60.8125L61.6765 39.952L59.9085 35.616H60.7165L62.0925 39.168L63.4525 35.616H64.2045Z" fill="white"/>
<rect x="94" y="26" width="49" height="22" rx="4" fill="#DFE1FF"/>
<path d="M108.772 34.464V40H108.044V35.872L106.204 40H105.692L103.844 35.864V40H103.116V34.464H103.9L105.948 39.04L107.996 34.464H108.772ZM111.919 40.072C111.508 40.072 111.135 39.9787 110.799 39.792C110.468 39.6053 110.207 39.3413 110.015 39C109.828 38.6533 109.735 38.2533 109.735 37.8C109.735 37.352 109.831 36.9573 110.023 36.616C110.22 36.2693 110.487 36.0053 110.823 35.824C111.159 35.6373 111.535 35.544 111.951 35.544C112.367 35.544 112.743 35.6373 113.079 35.824C113.415 36.0053 113.679 36.2667 113.871 36.608C114.068 36.9493 114.167 37.3467 114.167 37.8C114.167 38.2533 114.065 38.6533 113.863 39C113.665 39.3413 113.396 39.6053 113.055 39.792C112.713 39.9787 112.335 40.072 111.919 40.072ZM111.919 39.432C112.18 39.432 112.425 39.3707 112.655 39.248C112.884 39.1253 113.068 38.9413 113.207 38.696C113.351 38.4507 113.423 38.152 113.423 37.8C113.423 37.448 113.353 37.1493 113.215 36.904C113.076 36.6587 112.895 36.4773 112.671 36.36C112.447 36.2373 112.204 36.176 111.943 36.176C111.676 36.176 111.431 36.2373 111.207 36.36C110.988 36.4773 110.812 36.6587 110.679 36.904C110.545 37.1493 110.479 37.448 110.479 37.8C110.479 38.1573 110.543 38.4587 110.671 38.704C110.804 38.9493 110.98 39.1333 111.199 39.256C111.417 39.3733 111.657 39.432 111.919 39.432ZM117.26 35.536C117.793 35.536 118.225 35.6987 118.556 36.024C118.886 36.344 119.052 36.808 119.052 37.416V40H118.332V37.52C118.332 37.0827 118.222 36.7493 118.004 36.52C117.785 36.2853 117.486 36.168 117.108 36.168C116.724 36.168 116.417 36.288 116.188 36.528C115.964 36.768 115.852 37.1173 115.852 37.576V40H115.124V35.616H115.852V36.24C115.996 36.016 116.19 35.8427 116.436 35.72C116.686 35.5973 116.961 35.536 117.26 35.536ZM121.129 36.216V38.8C121.129 39.0133 121.174 39.1653 121.265 39.256C121.356 39.3413 121.513 39.384 121.737 39.384H122.273V40H121.617C121.212 40 120.908 39.9067 120.705 39.72C120.502 39.5333 120.401 39.2267 120.401 38.8V36.216H119.833V35.616H120.401V34.512H121.129V35.616H122.273V36.216H121.129ZM125.331 35.536C125.662 35.536 125.96 35.608 126.227 35.752C126.494 35.8907 126.702 36.1013 126.851 36.384C127.006 36.6667 127.083 37.0107 127.083 37.416V40H126.363V37.52C126.363 37.0827 126.254 36.7493 126.035 36.52C125.816 36.2853 125.518 36.168 125.139 36.168C124.755 36.168 124.448 36.288 124.219 36.528C123.995 36.768 123.883 37.1173 123.883 37.576V40H123.155V34.08H123.883V36.24C124.027 36.016 124.224 35.8427 124.475 35.72C124.731 35.5973 125.016 35.536 125.331 35.536ZM129 34.08V40H128.272V34.08H129ZM134.017 35.616L131.377 42.064H130.625L131.489 39.952L129.721 35.616H130.529L131.905 39.168L133.265 35.616H134.017Z" fill="#475791"/>
<rect x="162" y="26" width="49" height="22" rx="4" fill="#DFE1FF"/>
<path d="M178.724 35.616L176.084 42.064H175.332L176.196 39.952L174.428 35.616H175.236L176.612 39.168L177.972 35.616H178.724ZM183.456 37.64C183.456 37.7787 183.448 37.9253 183.432 38.08H179.928C179.954 38.512 180.101 38.8507 180.368 39.096C180.64 39.336 180.968 39.456 181.352 39.456C181.666 39.456 181.928 39.384 182.136 39.24C182.349 39.0907 182.498 38.8933 182.584 38.648H183.368C183.25 39.0693 183.016 39.4133 182.664 39.68C182.312 39.9413 181.874 40.072 181.352 40.072C180.936 40.072 180.562 39.9787 180.232 39.792C179.906 39.6053 179.65 39.3413 179.464 39C179.277 38.6533 179.184 38.2533 179.184 37.8C179.184 37.3467 179.274 36.9493 179.456 36.608C179.637 36.2667 179.89 36.0053 180.216 35.824C180.546 35.6373 180.925 35.544 181.352 35.544C181.768 35.544 182.136 35.6347 182.456 35.816C182.776 35.9973 183.021 36.248 183.192 36.568C183.368 36.8827 183.456 37.24 183.456 37.64ZM182.704 37.488C182.704 37.2107 182.642 36.9733 182.52 36.776C182.397 36.5733 182.229 36.4213 182.016 36.32C181.808 36.2133 181.576 36.16 181.32 36.16C180.952 36.16 180.637 36.2773 180.376 36.512C180.12 36.7467 179.973 37.072 179.936 37.488H182.704ZM184.145 37.792C184.145 37.344 184.235 36.952 184.417 36.616C184.598 36.2747 184.846 36.0107 185.161 35.824C185.481 35.6373 185.835 35.544 186.225 35.544C186.609 35.544 186.942 35.6267 187.225 35.792C187.507 35.9573 187.718 36.1653 187.857 36.416V35.616H188.593V40H187.857V39.184C187.713 39.44 187.497 39.6533 187.209 39.824C186.926 39.9893 186.595 40.072 186.217 40.072C185.827 40.072 185.475 39.976 185.161 39.784C184.846 39.592 184.598 39.3227 184.417 38.976C184.235 38.6293 184.145 38.2347 184.145 37.792ZM187.857 37.8C187.857 37.4693 187.79 37.1813 187.657 36.936C187.523 36.6907 187.342 36.504 187.113 36.376C186.889 36.2427 186.641 36.176 186.369 36.176C186.097 36.176 185.849 36.24 185.625 36.368C185.401 36.496 185.222 36.6827 185.089 36.928C184.955 37.1733 184.889 37.4613 184.889 37.792C184.889 38.128 184.955 38.4213 185.089 38.672C185.222 38.9173 185.401 39.1067 185.625 39.24C185.849 39.368 186.097 39.432 186.369 39.432C186.641 39.432 186.889 39.368 187.113 39.24C187.342 39.1067 187.523 38.9173 187.657 38.672C187.79 38.4213 187.857 38.1307 187.857 37.8ZM190.551 36.328C190.679 36.0773 190.86 35.8827 191.095 35.744C191.335 35.6053 191.626 35.536 191.967 35.536V36.288H191.775C190.959 36.288 190.551 36.7307 190.551 37.616V40H189.823V35.616H190.551V36.328ZM193.535 34.08V40H192.807V34.08H193.535ZM198.552 35.616L195.912 42.064H195.16L196.024 39.952L194.256 35.616H195.064L196.44 39.168L197.8 35.616H198.552Z" fill="#475791"/>
<path d="M67.0497 184.542V185.353C66.1387 185.402 65.0406 185.832 65.065 186.886C65.0976 187.949 66.1306 188.143 67.1717 188.346C68.1071 188.525 69.0506 188.711 69.0425 189.563C69.0425 190.423 67.9281 190.674 67.2286 190.674C66.5372 190.674 65.6344 190.455 65.2928 189.79L64.9023 189.985C65.2928 190.747 66.22 191.063 67.0497 191.096V191.883H67.4076V191.096C68.3348 191.055 69.4736 190.642 69.4817 189.571C69.4817 188.346 68.343 188.152 67.2449 187.941C66.2851 187.762 65.5205 187.584 65.5042 186.87C65.4798 186.034 66.5617 185.759 67.2286 185.759C67.8387 185.767 68.6195 185.97 68.9286 186.545L69.3109 186.335C68.9449 185.669 68.1478 185.394 67.4157 185.353V184.542H67.0497Z" fill="#2B59FF"/>
<path d="M70.6921 186.902C70.6921 185.961 71.6845 185.702 72.4409 185.702C73.2218 185.702 74.2304 185.978 74.2304 186.975C74.2304 187.933 73.1811 188.208 72.4409 188.208C71.3916 188.208 70.2285 188.533 70.2285 189.79V191.072H74.5801V190.65H70.6596V189.782C70.6596 188.809 71.6275 188.614 72.4572 188.606C73.4658 188.606 74.6371 188.135 74.6371 186.975C74.6289 185.751 73.4902 185.321 72.4409 185.321C71.416 185.321 70.261 185.694 70.261 186.902H70.6921Z" fill="#2B59FF"/>
<path d="M75.297 191.072H77.6558V190.69H76.696V185.394H75.297V185.783H76.2568V190.69H75.297V191.072Z" fill="#2B59FF"/>
<path d="M78.2994 190.828C78.2994 190.982 78.3889 191.08 78.4946 191.12L78.2424 191.793H78.5922L78.9176 190.966C78.9338 190.917 78.942 190.877 78.942 190.828C78.942 190.406 78.2994 190.406 78.2994 190.828Z" fill="#2B59FF"/>
<path d="M80.2616 187.551C80.2616 185.126 83.7592 185.134 83.7592 187.551V188.906C83.7592 191.331 80.2616 191.339 80.2616 188.906V187.551ZM79.8305 188.906C79.8305 191.883 84.1903 191.875 84.1903 188.906V187.551C84.1903 184.583 79.8305 184.574 79.8305 187.551V188.906Z" fill="#2B59FF"/>
<path d="M85.4247 187.551C85.4247 185.126 88.9223 185.134 88.9223 187.551V188.906C88.9223 191.331 85.4247 191.339 85.4247 188.906V187.551ZM84.9936 188.906C84.9936 191.883 89.3534 191.875 89.3534 188.906V187.551C89.3534 184.583 84.9936 184.574 84.9936 187.551V188.906Z" fill="#2B59FF"/>
<path d="M90.5878 187.551C90.5878 185.126 94.0854 185.134 94.0854 187.551V188.906C94.0854 191.331 90.5878 191.339 90.5878 188.906V187.551ZM90.1567 188.906C90.1567 191.883 94.5165 191.875 94.5165 188.906V187.551C94.5165 184.583 90.1567 184.574 90.1567 187.551V188.906Z" fill="#2B59FF"/>
<path fill-rule="evenodd" clip-rule="evenodd" d="M66.8097 184.542H67.6584V185.373C68.3673 185.457 69.1399 185.762 69.5238 186.459L69.6395 186.67L68.8327 187.115L68.7172 186.9C68.5981 186.678 68.3805 186.514 68.1032 186.403C67.827 186.293 67.5104 186.244 67.2284 186.24C66.9209 186.24 66.5237 186.305 66.2157 186.457C65.9104 186.608 65.7384 186.817 65.7468 187.104L65.7469 187.105C65.7499 187.238 65.7863 187.334 65.8435 187.411C65.903 187.491 65.9954 187.564 66.13 187.631C66.4074 187.77 66.8035 187.854 67.2905 187.945L67.2919 187.945C67.3175 187.95 67.3433 187.955 67.3692 187.96C67.8846 188.058 68.4515 188.167 68.8915 188.405C69.1285 188.533 69.3401 188.704 69.4914 188.94C69.6436 189.178 69.7244 189.467 69.7244 189.812V189.813C69.7195 190.451 69.3711 190.891 68.9156 191.166C68.5376 191.394 68.0789 191.515 67.6502 191.56V192.364H66.8097V191.561C66.0007 191.481 65.0991 191.136 64.6888 190.335L64.5781 190.119L65.4 189.709L65.5089 189.921C65.6439 190.184 65.8974 190.373 66.2185 190.498C66.5392 190.623 66.9068 190.674 67.23 190.674C67.5578 190.674 67.9733 190.614 68.2972 190.464C68.6177 190.314 68.8025 190.103 68.8025 189.804V189.801C68.8041 189.636 68.7607 189.516 68.6912 189.421C68.6191 189.321 68.5082 189.235 68.3544 189.158C68.0384 189 67.6049 188.914 67.1277 188.823C67.1147 188.821 67.1008 188.818 67.0877 188.815C66.5893 188.718 66.0484 188.613 65.6287 188.392C65.4082 188.276 65.2095 188.122 65.064 187.911C64.9172 187.698 64.8346 187.441 64.8252 187.134L64.8251 187.132C64.8106 186.503 65.1379 186.061 65.5781 185.78C65.9423 185.548 66.389 185.422 66.8097 185.373V184.542ZM65.3075 187.116C65.3075 187.118 65.3076 187.119 65.3076 187.12C65.3146 187.345 65.3733 187.51 65.4618 187.638C65.5516 187.769 65.6823 187.876 65.8542 187.966C66.2072 188.153 66.6839 188.246 67.2138 188.35C67.2151 188.35 67.2174 188.35 67.2188 188.351C67.2186 188.351 67.219 188.351 67.2188 188.351L67.2209 188.351C67.6784 188.438 68.1832 188.535 68.5702 188.727C68.7681 188.826 68.9501 188.957 69.0818 189.138C69.2159 189.322 69.2874 189.544 69.2851 189.805C69.2851 189.805 69.2851 189.804 69.2851 189.805L69.2418 189.805C69.2418 189.805 69.2418 189.804 69.2417 189.804L69.2851 189.805C69.2851 189.805 69.2851 189.804 69.2851 189.805C69.2851 189.806 69.2851 189.808 69.2851 189.81L69.2418 189.81C69.2418 189.81 69.2418 189.81 69.2418 189.81C69.2418 189.808 69.2418 189.807 69.2418 189.805L69.0438 189.804H69.2417C69.2405 189.54 69.1792 189.347 69.0845 189.199C68.988 189.048 68.8464 188.928 68.6614 188.828C68.289 188.626 67.7887 188.53 67.2421 188.426C67.2301 188.423 67.2181 188.421 67.206 188.419M67.2394 191.103L67.3984 191.096C67.8362 191.077 68.3094 190.97 68.6658 190.755C69.0133 190.545 69.2382 190.242 69.2418 189.81C69.2418 189.81 69.2418 189.811 69.2418 189.812H69.2851C69.2815 190.367 68.9108 190.709 68.5013 190.9C68.153 191.062 67.7441 191.133 67.4008 191.151C67.3638 191.153 67.3276 191.154 67.2923 191.155V191.105L67.2394 191.103ZM67.1676 191.155C67.1886 191.155 67.2094 191.155 67.23 191.155C67.2504 191.155 67.2712 191.155 67.2923 191.155V191.883H67.1676V191.155ZM65.2061 190.344C65.4196 190.63 65.7248 190.823 66.0433 190.946C66.3732 191.075 66.7323 191.136 67.0583 191.151C67.0952 191.153 67.1317 191.154 67.1676 191.155V191.106L67.2394 191.103L67.0605 191.096C66.3533 191.068 65.6335 190.827 65.2488 190.322L65.402 190.246L65.2941 190.031L65.1204 190.119C65.1198 190.118 65.1192 190.117 65.1186 190.116L64.9037 190.225L65.0116 190.441L65.2061 190.344ZM65.2061 190.344C65.1591 190.281 65.1166 190.213 65.0794 190.14L65.1204 190.119C65.1575 190.191 65.2005 190.259 65.2488 190.322L65.2061 190.344ZM67.1676 192.123H67.051V191.883H67.1676V192.123ZM67.2923 192.123V191.883H67.4089V192.123H67.2923ZM69.2851 189.812C69.2851 189.811 69.2851 189.811 69.2851 189.81L69.4831 189.812H69.2851ZM65.3075 187.116C65.2998 186.694 65.5089 186.395 65.8378 186.186C66.1774 185.97 66.6353 185.857 67.064 185.834L67.2371 185.825L67.4037 185.834C68.0138 185.868 68.6174 186.071 68.9651 186.492L68.8132 186.576L68.93 186.786L69.1427 186.673C69.1421 186.671 69.1415 186.67 69.1408 186.669L69.3123 186.575L69.1955 186.365L69.0076 186.468C68.8161 186.229 68.5542 186.065 68.2825 185.956C67.9985 185.843 67.6907 185.785 67.4075 185.766C67.3686 185.763 67.3302 185.761 67.2923 185.76V185.023H67.4171V184.783H67.2923M70.8457 185.691C71.3138 185.417 71.907 185.321 72.4423 185.321C72.9941 185.321 73.5908 185.433 74.0589 185.725C74.5396 186.026 74.8751 186.513 74.8797 187.214L74.8797 187.216C74.8797 187.892 74.5318 188.371 74.0551 188.67C73.5882 188.963 72.9958 189.087 72.4598 189.087C72.0553 189.091 71.6513 189.142 71.356 189.288C71.2119 189.359 71.1012 189.45 71.026 189.563C70.9517 189.674 70.9023 189.821 70.9023 190.023V190.65H74.8228V191.553H69.9886V190.031C69.9886 189.31 70.3311 188.837 70.8237 188.559C71.2983 188.291 71.9 188.208 72.4423 188.208C72.7892 188.208 73.1932 188.143 73.5011 187.979C73.7977 187.821 73.9904 187.585 73.9904 187.216C73.9904 186.818 73.7986 186.574 73.5127 186.416C73.2125 186.249 72.811 186.183 72.4423 186.183C72.0849 186.183 71.6921 186.246 71.3979 186.402C71.1171 186.552 70.9348 186.779 70.9348 187.143V187.384H70.0211V187.143C70.0211 186.445 70.363 185.974 70.8457 185.691ZM83.673 185.943C84.135 186.363 84.4329 186.986 84.4329 187.792V189.147C84.4329 189.952 84.135 190.575 83.673 190.995C83.215 191.412 82.61 191.616 82.012 191.617C81.4139 191.617 80.8088 191.414 80.3506 190.998C79.8884 190.578 79.5906 189.954 79.5906 189.147V187.792C79.5906 186.985 79.8884 186.361 80.3506 185.941C80.8088 185.524 81.4139 185.321 82.012 185.322C82.61 185.322 83.215 185.527 83.673 185.943ZM88.8361 185.943C89.2981 186.363 89.596 186.986 89.596 187.792V189.147C89.596 189.952 89.2981 190.575 88.8361 190.995C88.3781 191.412 87.7731 191.616 87.1751 191.617C86.577 191.617 85.9719 191.414 85.5136 190.998C85.0514 190.578 84.7537 189.954 84.7537 189.147V187.792C84.7537 186.985 85.0514 186.361 85.5136 185.941C85.9719 185.524 86.577 185.321 87.1751 185.322C87.7731 185.322 88.3781 185.527 88.8361 185.943ZM93.9992 185.943C94.4612 186.363 94.7591 186.986 94.7591 187.792V189.147C94.7591 189.952 94.4612 190.575 93.9992 190.995C93.5412 191.412 92.9362 191.616 92.3382 191.617C91.7401 191.617 91.135 191.414 90.6767 190.998C90.2145 190.578 89.9168 189.954 89.9168 189.147V187.792C89.9168 186.985 90.2145 186.361 90.6767 185.941C91.135 185.524 91.7401 185.321 92.3382 185.322C92.9362 185.322 93.5412 185.527 93.9992 185.943ZM75.057 185.394H76.9387V190.69H77.8985V191.553H75.057V190.69H76.0168V186.264H75.057V185.394ZM80.9733 186.605C80.6985 186.859 80.5043 187.247 80.5043 187.792V189.147C80.5043 189.693 80.6987 190.083 80.9736 190.338C81.2522 190.596 81.6286 190.728 82.0115 190.728C82.3943 190.727 82.771 190.594 83.0498 190.336C83.325 190.081 83.5192 189.691 83.5192 189.147V187.792C83.5192 187.25 83.3252 186.862 83.0501 186.608C82.7713 186.35 82.3946 186.217 82.0115 186.217C81.6284 186.216 81.2519 186.349 80.9733 186.605ZM86.1364 186.605C85.8616 186.859 85.6674 187.247 85.6674 187.792V189.147C85.6674 189.693 85.8618 190.083 86.1367 190.338C86.4153 190.596 86.7917 190.728 87.1746 190.728C87.5574 190.727 87.9341 190.594 88.2129 190.336C88.4881 190.081 88.6823 189.691 88.6823 189.147V187.792C88.6823 187.25 88.4883 186.862 88.2132 186.608C87.9344 186.35 87.5577 186.217 87.1746 186.217C86.7915 186.216 86.415 186.349 86.1364 186.605ZM91.2995 186.605C91.0247 186.859 90.8305 187.247 90.8305 187.792V189.147C90.8305 189.693 91.0249 190.083 91.2998 190.338C91.5784 190.596 91.9548 190.728 92.3377 190.728C92.7205 190.727 93.0972 190.594 93.376 190.336C93.6512 190.081 93.8454 189.691 93.8454 189.147V187.792C93.8454 187.25 93.6514 186.862 93.3763 186.608C93.0975 186.35 92.7208 186.217 92.3377 186.217C91.9546 186.216 91.5781 186.349 91.2995 186.605ZM79.0021 190.651C79.1167 190.751 79.1846 190.897 79.1846 191.069C79.1846 191.149 79.1702 191.216 79.1478 191.283L79.1439 191.295L78.7581 192.275H77.8961L78.2053 191.449C78.1178 191.356 78.0594 191.228 78.0594 191.069C78.0594 190.897 78.1274 190.751 78.242 190.651C78.3519 190.555 78.4911 190.512 78.622 190.512C78.7529 190.512 78.8922 190.555 79.0021 190.651ZM78.5603 191.012C78.5544 191.018 78.5421 191.03 78.5421 191.069C78.5421 191.097 78.5495 191.11 78.5537 191.116C78.559 191.123 78.5683 191.131 78.5826 191.136L78.6737 191.171L78.6918 191.125C78.7004 191.099 78.702 191.085 78.702 191.069C78.702 191.03 78.6896 191.018 78.6837 191.012C78.6732 191.003 78.6518 190.993 78.622 190.993C78.5923 190.993 78.5709 191.003 78.5603 191.012Z" fill="#2B59FF"/>
<g filter="url(#filter2_d_326_298)">
<path d="M42.082 184.819C42.082 183.047 43.5225 181.61 45.2994 181.61H51.7342C53.5111 181.61 54.9516 183.047 54.9516 184.819V191.236C54.9516 193.008 53.5111 194.444 51.7342 194.444H45.2994C43.5225 194.444 42.082 193.008 42.082 191.236V184.819Z" fill="url(#paint1_radial_326_298)"/>
</g>
<path fill-rule="evenodd" clip-rule="evenodd" d="M48.2306 184.534C48.3876 184.378 48.6423 184.378 48.7993 184.534L51.3588 187.087C51.5158 187.243 51.5158 187.497 51.3588 187.654C51.2017 187.811 50.9471 187.811 50.79 187.654L48.9171 185.786L48.9171 191.235C48.9171 191.456 48.7371 191.636 48.515 191.636C48.2929 191.636 48.1128 191.456 48.1128 191.235L48.1128 185.786L46.2399 187.654C46.0829 187.811 45.8282 187.811 45.6712 187.654C45.5141 187.497 45.5141 187.243 45.6712 187.087L48.2306 184.534Z" fill="white"/>
<g filter="url(#filter3_d_326_298)">
<path d="M135.391 184.819C135.391 183.047 136.831 181.61 138.608 181.61H145.043C146.82 181.61 148.26 183.047 148.26 184.819V191.236C148.26 193.008 146.82 194.444 145.043 194.444H138.608C136.831 194.444 135.391 193.008 135.391 191.236V184.819Z" fill="url(#paint2_radial_326_298)"/>
</g>
<path fill-rule="evenodd" clip-rule="evenodd" d="M141.539 191.52C141.696 191.677 141.951 191.677 142.108 191.52L144.667 188.968C144.824 188.811 144.824 188.557 144.667 188.401C144.51 188.244 144.256 188.244 144.099 188.401L142.226 190.268L142.226 184.82C142.226 184.598 142.046 184.419 141.824 184.419C141.601 184.419 141.421 184.598 141.421 184.82L141.421 190.268L139.549 188.401C139.391 188.244 139.137 188.244 138.98 188.401C138.823 188.557 138.823 188.811 138.98 188.968L141.539 191.52Z" fill="white"/>
<defs>
<filter id="filter0_b_326_298" x="-44.7807" y="99.7262" width="231.645" height="176.878" filterUnits="userSpaceOnUse" color-interpolation-filters="sRGB">
<feFlood flood-opacity="0" result="BackgroundImageFix"/>
<feGaussianBlur in="BackgroundImageFix" stdDeviation="37.8024"/>
<feComposite in2="SourceAlpha" operator="in" result="effect1_backgroundBlur_326_298"/>
<feBlend mode="normal" in="SourceGraphic" in2="effect1_backgroundBlur_326_298" result="shape"/>
</filter>
<filter id="filter1_b_326_298" x="48.524" y="99.7271" width="231.645" height="176.878" filterUnits="userSpaceOnUse" color-interpolation-filters="sRGB">
<feFlood flood-opacity="0" result="BackgroundImageFix"/>
<feGaussianBlur in="BackgroundImageFix" stdDeviation="37.8024"/>
<feComposite in2="SourceAlpha" operator="in" result="effect1_backgroundBlur_326_298"/>
<feBlend mode="normal" in="SourceGraphic" in2="effect1_backgroundBlur_326_298" result="shape"/>
</filter>
<filter id="filter2_d_326_298" x="31.1071" y="173.074" width="34.8194" height="34.7838" filterUnits="userSpaceOnUse" color-interpolation-filters="sRGB">
<feFlood flood-opacity="0" result="BackgroundImageFix"/>
<feColorMatrix in="SourceAlpha" type="matrix" values="0 0 0 0 0 0 0 0 0 0 0 0 0 0 0 0 0 0 127 0" result="hardAlpha"/>
<feOffset dy="2.43887"/>
<feGaussianBlur stdDeviation="5.48745"/>
<feComposite in2="hardAlpha" operator="out"/>
<feColorMatrix type="matrix" values="0 0 0 0 0.324583 0 0 0 0 0.95 0 0 0 0 0.386302 0 0 0 0.59 0"/>
<feBlend mode="normal" in2="BackgroundImageFix" result="effect1_dropShadow_326_298"/>
<feBlend mode="normal" in="SourceGraphic" in2="effect1_dropShadow_326_298" result="shape"/>
</filter>
<filter id="filter3_d_326_298" x="124.416" y="173.074" width="34.8194" height="34.7838" filterUnits="userSpaceOnUse" color-interpolation-filters="sRGB">
<feFlood flood-opacity="0" result="BackgroundImageFix"/>
<feColorMatrix in="SourceAlpha" type="matrix" values="0 0 0 0 0 0 0 0 0 0 0 0 0 0 0 0 0 0 127 0" result="hardAlpha"/>
<feOffset dy="2.43887"/>
<feGaussianBlur stdDeviation="5.48745"/>
<feComposite in2="hardAlpha" operator="out"/>
<feColorMatrix type="matrix" values="0 0 0 0 1 0 0 0 0 0.588235 0 0 0 0 0.560784 0 0 0 0.53 0"/>
<feBlend mode="normal" in2="BackgroundImageFix" result="effect1_dropShadow_326_298"/>
<feBlend mode="normal" in="SourceGraphic" in2="effect1_dropShadow_326_298" result="shape"/>
</filter>
<linearGradient id="paint0_linear_326_298" x1="121.851" y1="9.20328" x2="116.252" y2="131.929" gradientUnits="userSpaceOnUse">
<stop stop-color="#8992FF"/>
<stop offset="1" stop-color="#8992FF" stop-opacity="0"/>
</linearGradient>
<radialGradient id="paint1_radial_326_298" cx="0" cy="0" r="1" gradientUnits="userSpaceOnUse" gradientTransform="translate(42.8864 180.808) rotate(50.1162) scale(18.8157 18.825)">
<stop stop-color="#5EFF6E"/>
<stop offset="1" stop-color="#35CA44"/>
</radialGradient>
<radialGradient id="paint2_radial_326_298" cx="0" cy="0" r="1" gradientUnits="userSpaceOnUse" gradientTransform="translate(135.391 180.006) rotate(49.3201) scale(22.2116 22.221)">
<stop stop-color="#FFA39D"/>
<stop offset="1" stop-color="#FF675E"/>
</radialGradient>
</defs>
</svg>
