<svg width="149" height="92" viewBox="0 0 149 92" fill="none" xmlns="http://www.w3.org/2000/svg">
<path fill-rule="evenodd" clip-rule="evenodd" d="M18.9391 0.221358C13.0591 2.86136 7.21908 5.42137 1.41908 8.23137C0.169083 8.83137 -0.350839 10.3212 0.249161 11.5612C0.849161 12.8112 2.349 13.3314 3.589 12.7314C9.359 9.94137 15.1489 7.40142 20.9889 4.78142C22.2489 4.21142 22.8092 2.73137 22.2492 1.48137C21.6792 0.221368 20.1991 -0.348642 18.9391 0.221358Z" fill="black"/>
<path fill-rule="evenodd" clip-rule="evenodd" d="M62.1365 31.4511C53.5965 49.9411 45.9962 68.8512 37.8562 87.5112C37.3062 88.7812 37.8863 90.2512 39.1463 90.8012C40.4163 91.3512 41.8861 90.7812 42.4461 89.5112C50.5661 70.8812 58.146 52.0012 66.676 33.5512C67.256 32.2912 66.7063 30.8111 65.4563 30.2311C64.1963 29.6511 62.7165 30.2011 62.1365 31.4511Z" fill="black"/>
<path fill-rule="evenodd" clip-rule="evenodd" d="M135.407 36.252C138.137 53.2519 141.347 70.2019 143.887 87.2319C144.097 88.5919 145.367 89.5318 146.727 89.3318C148.097 89.1318 149.037 87.8519 148.837 86.4919C146.287 69.4419 143.077 52.4719 140.337 35.4519C140.117 34.0919 138.837 33.1618 137.477 33.3818C136.107 33.6018 135.187 34.882 135.407 36.252Z" fill="black"/>
</svg>
