<svg width="26" height="26" viewBox="0 0 26 26" fill="none" xmlns="http://www.w3.org/2000/svg">
<path fill-rule="evenodd" clip-rule="evenodd" d="M11.1392 8.39945C11.1575 8.16193 11.3556 7.97852 11.5938 7.97852H11.8228C12.057 7.97852 12.2531 8.15599 12.2764 8.38905L12.7673 13.2973L16.2608 15.2936C16.4028 15.3748 16.4905 15.5258 16.4905 15.6894V15.8918C16.4905 16.1924 16.2046 16.4107 15.9146 16.3316L11.0032 14.9921C10.7923 14.9346 10.6519 14.7354 10.6686 14.5173L11.1392 8.39945Z" fill="black"/>
<path fill-rule="evenodd" clip-rule="evenodd" d="M6.50164 1.39239C6.26083 1.1054 5.79586 1.21525 5.70894 1.57966L4.44976 6.85865C4.37893 7.15558 4.61424 7.43687 4.91901 7.41959L10.3496 7.11185C10.7242 7.09062 10.9142 6.65111 10.673 6.36364L9.30867 4.73768C10.2382 4.42 11.2238 4.25407 12.2359 4.25407C17.2297 4.25407 21.2779 8.30231 21.2779 13.2961C21.2779 18.2898 17.2297 22.3381 12.2359 22.3381C7.24213 22.3381 3.19388 18.2898 3.19388 13.2961C3.19388 12.4578 3.3074 11.6367 3.52876 10.8475L1.48029 10.2729C1.21059 11.2344 1.06635 12.2484 1.06635 13.2961C1.06635 19.4648 6.06712 24.4656 12.2359 24.4656C18.4047 24.4656 23.4054 19.4648 23.4054 13.2961C23.4054 7.12731 18.4047 2.12653 12.2359 2.12653C10.684 2.12653 9.20611 2.44301 7.86312 3.01494L6.50164 1.39239Z" fill="black"/>
</svg>
