<svg width="30" height="30" viewBox="0 0 30 30" fill="none" xmlns="http://www.w3.org/2000/svg">
<circle cx="15" cy="15" r="15" fill="black"/>
<path d="M21.5 8C22.3125 8 23 8.6875 23 9.5V20.5C23 21.3438 22.3125 22 21.5 22H8.5C7.65625 22 7 21.3438 7 20.5V9.5C7 8.6875 7.65625 8 8.5 8H21.5ZM8.5 9.875V10.625C8.5 10.8438 8.65625 11 8.875 11H10.125C10.3125 11 10.5 10.8438 10.5 10.625V9.875C10.5 9.6875 10.3125 9.5 10.125 9.5H8.875C8.65625 9.5 8.5 9.6875 8.5 9.875ZM21.5 20.3125V12.25H8.5V20.3125C8.5 20.4375 8.5625 20.5 8.6875 20.5H21.3125C21.4062 20.5 21.5 20.4375 21.5 20.3125ZM21.5 10.625V9.875C21.5 9.6875 21.3125 9.5 21.125 9.5H12.375C12.1562 9.5 12 9.6875 12 9.875V10.625C12 10.8438 12.1562 11 12.375 11H21.125C21.3125 11 21.5 10.8438 21.5 10.625Z" fill="white"/>
</svg>
