<svg width="17" height="16" viewBox="0 0 17 16" fill="none" xmlns="http://www.w3.org/2000/svg">
<path d="M16.5 8C16.5 12.4375 12.9062 16 8.5 16C4.0625 16 0.5 12.4375 0.5 8C0.5 3.59375 4.0625 0 8.5 0C12.9062 0 16.5 3.59375 16.5 8ZM6 5.25V10.75C6 11.0312 6.125 11.2812 6.375 11.4062C6.59375 11.5625 6.90625 11.5312 7.125 11.4062L11.625 8.65625C11.8438 8.53125 12 8.28125 12 8C12 7.75 11.8438 7.5 11.625 7.375L7.125 4.625C6.90625 4.46875 6.59375 4.46875 6.375 4.625C6.125 4.75 6 5 6 5.25Z" fill="black"/>
</svg>
