<svg width="60" height="60" viewBox="0 0 60 60" fill="none" xmlns="http://www.w3.org/2000/svg">
<path d="M59.5 30C59.5 46.2924 46.2924 59.5 30 59.5C13.7076 59.5 0.5 46.2924 0.5 30C0.5 13.7076 13.7076 0.5 30 0.5C46.2924 0.5 59.5 13.7076 59.5 30Z" stroke="#0D0D0D"/>
<path d="M47.1477 18.602C46.031 19.1313 44.7863 19.4526 43.5781 19.6605C44.1456 19.566 44.9876 18.4886 45.3354 18.0538C45.848 17.3923 46.2873 16.6362 46.5253 15.8234C46.5619 15.7667 46.5802 15.6722 46.5253 15.6344C46.4521 15.5966 46.3971 15.6344 46.3422 15.6344C44.9876 16.3905 43.5964 16.9197 42.1137 17.3167C41.9855 17.3545 41.894 17.3167 41.8208 17.241C41.6927 17.0898 41.5828 16.9575 41.4547 16.8441C40.8323 16.2959 40.155 15.8612 39.4045 15.5399C38.416 15.124 37.336 14.9539 36.256 15.0106C35.2125 15.0862 34.1874 15.3886 33.2722 15.8801C32.3386 16.3715 31.5149 17.0709 30.8559 17.9026C30.1786 18.7721 29.666 19.7928 29.4097 20.8702C29.1535 21.9099 29.1901 22.9495 29.3365 24.008C29.3548 24.1781 29.3365 24.2159 29.1901 24.1781C23.369 23.2897 18.5546 21.1349 14.6373 16.5228C14.4725 16.3148 14.381 16.3148 14.2346 16.5228C12.5139 19.1691 13.3559 23.4409 15.4976 25.5202C15.7905 25.8037 16.0834 26.0872 16.3946 26.333C16.2848 26.3519 14.8569 26.2006 13.5939 25.5202C13.4291 25.4068 13.3376 25.4635 13.3193 25.6714C13.3193 25.9549 13.3193 26.2195 13.3742 26.5409C13.7037 29.225 15.4976 31.7201 17.9689 32.6841C18.2617 32.8164 18.5912 32.9298 18.9024 32.9865C18.335 33.1188 17.7675 33.2133 16.1566 33.081C15.9553 33.0432 15.882 33.1377 15.9553 33.3456C17.1634 36.748 19.7811 37.7688 21.7398 38.3547C21.996 38.3925 22.2706 38.3925 22.5269 38.4681C22.5269 38.487 22.4903 38.487 22.472 38.5248C21.8313 39.5455 19.5614 40.3016 18.518 40.6797C16.6143 41.3601 14.5274 41.6815 12.5139 41.4736C12.1844 41.4168 12.1294 41.4358 12.0379 41.4736C11.9464 41.5303 12.0379 41.6059 12.1294 41.7004C12.5322 41.9839 12.9532 42.2296 13.3742 42.4565C14.6556 43.1559 15.9919 43.7229 17.3831 44.1198C24.5954 46.1802 32.723 44.668 38.1231 39.1108C42.37 34.7444 43.871 28.7335 43.871 22.7038C43.871 22.4769 44.1456 22.3446 44.292 22.2123C45.3903 21.3617 46.2873 20.3221 47.1111 19.188C47.2941 18.9233 47.2941 18.6965 47.2941 18.602V18.5642C47.2941 18.4697 47.2941 18.4886 47.1477 18.5642V18.602Z" fill="#0D0D0D"/>
</svg>
