<svg width="60" height="60" viewBox="0 0 60 60" fill="none" xmlns="http://www.w3.org/2000/svg">
<circle cx="30" cy="30" r="29.5" stroke="#0D0D0D"/>
<path d="M27.7063 37.4742C27.7327 37.3839 27.7591 37.2807 27.7987 37.1775C28.0232 37.4484 28.2081 37.7193 28.4459 37.9515C31.4703 40.957 38.0211 40.6345 42.0624 35.7328C45.5755 31.4761 45.8529 25.4392 45.4699 23.0013C44.6246 17.6352 40.1474 12.9012 33.0552 12.1143C27.1252 11.4565 20.614 13.6235 17.1273 18.9767C13.9708 23.8139 14.6576 29.5154 17.0349 32.4048C17.7349 33.2562 18.5933 33.9011 19.6367 34.301C20.165 34.5074 20.6008 34.3268 20.7461 33.8108C20.9442 33.1272 21.1027 32.4306 21.2876 31.747C21.4065 31.3084 21.1291 31.0375 20.7725 30.5989C17.9594 27.1548 19.3726 19.6217 25.6063 16.8097C31.0345 14.3588 39.5927 15.997 40.055 23.6205C40.2927 27.4386 39.0512 32.8305 35.8815 35.0879C32.4344 37.5258 28.4062 35.1524 29.2779 31.8115C30.3213 27.7611 31.6816 25.0265 31.1665 22.9239C30.3345 19.5314 25.5667 19.8539 24.246 23.9558C23.6385 25.852 23.7705 27.7353 24.4705 29.5799C24.5366 29.7476 24.5762 29.9024 24.5366 30.083C21.6046 42.1179 21.3272 42.879 21.248 45.0977C21.2444 45.1853 21.2418 45.273 21.24 45.3606C21.2198 46.3805 21.8626 47.2918 22.8205 47.6425C23.4446 47.871 24.1517 47.6246 24.4917 47.0535C24.5338 46.9827 24.5752 46.9113 24.6158 46.8391C26.1082 44.2592 26.2667 43.0209 27.7195 37.4742H27.7063Z" fill="#0D0D0D"/>
</svg>
