<svg width="60" height="60" viewBox="0 0 60 60" fill="none" xmlns="http://www.w3.org/2000/svg">
<path d="M59.5 30C59.5 46.2924 46.2924 59.5 30 59.5C13.7076 59.5 0.5 46.2924 0.5 30C0.5 13.7076 13.7076 0.5 30 0.5C46.2924 0.5 59.5 13.7076 59.5 30Z" stroke="#0D0D0D"/>
<path d="M38.4693 19.7036C37.4355 19.7036 36.5869 20.5368 36.5869 21.586C36.5869 22.6351 37.4201 23.4683 38.4693 23.4683C39.5184 23.4683 40.3516 22.6351 40.3516 21.586C40.3516 20.5368 39.5184 19.7036 38.4693 19.7036Z" fill="#0D0D0D"/>
<path d="M30.1362 22.1184C25.7852 22.1184 22.252 25.6517 22.252 30.0027C22.252 34.3537 25.7852 37.887 30.1362 37.887C34.4872 37.887 38.0205 34.3537 38.0205 30.0027C38.0205 25.6517 34.4872 22.1184 30.1362 22.1184ZM30.1362 35.048C27.359 35.048 25.0909 32.7799 25.0909 30.0027C25.0909 27.2254 27.359 24.9574 30.1362 24.9574C32.9135 24.9574 35.1816 27.2254 35.1816 30.0027C35.1816 32.7799 32.9135 35.048 30.1362 35.048Z" fill="#0D0D0D"/>
<path d="M36.3877 46H23.6123C18.3047 46 14 41.6798 14 36.3877V23.6123C14 18.3047 18.3047 14 23.6123 14H36.3877C41.6953 14 46 18.3047 46 23.6123V36.3877C46 41.6953 41.6798 46 36.3877 46ZM23.6123 17.0087C19.9711 17.0087 17.0087 19.9711 17.0087 23.6123V36.3877C17.0087 40.0289 19.9711 42.9913 23.6123 42.9913H36.3877C40.0289 42.9913 42.9913 40.0289 42.9913 36.3877V23.6123C42.9913 19.9711 40.0289 17.0087 36.3877 17.0087H23.6123Z" fill="#0D0D0D"/>
</svg>
