<svg width="25" height="23" viewBox="0 0 25 23" fill="none" xmlns="http://www.w3.org/2000/svg">
<path d="M1.03582 19.85C0.401207 20.3825 0.318431 21.3286 0.850933 21.9632C1.38344 22.5978 2.32957 22.6806 2.96418 22.1481L1.03582 19.85ZM24.9435 3.1317C25.0157 2.30643 24.4053 1.57888 23.58 1.50668L10.1313 0.330075C9.30607 0.257873 8.57853 0.868359 8.50632 1.69363C8.43412 2.51891 9.04461 3.24646 9.86988 3.31866L21.8242 4.36453L20.7783 16.3189C20.7061 17.1441 21.3166 17.8717 22.1419 17.9439C22.9672 18.0161 23.6947 17.4056 23.7669 16.5803L24.9435 3.1317ZM2.96418 22.1481L24.4134 4.15004L22.4851 1.8519L1.03582 19.85L2.96418 22.1481Z" fill="#1C1C1D"/>
</svg>
