<svg width="130" height="30" viewBox="0 0 130 30" fill="none" xmlns="http://www.w3.org/2000/svg">
<path d="M31.3699 6.8501H34.3699V21.3001H31.3699V6.8501Z" fill="#8897BD"/>
<path d="M36.0498 16.35C36.0498 15.3104 36.3585 14.2942 36.9367 13.4302C37.5149 12.5662 38.3366 11.8933 39.2977 11.4968C40.2588 11.1004 41.3159 10.9982 42.3351 11.2032C43.3543 11.4082 44.2897 11.9112 45.0227 12.6484C45.7557 13.3857 46.2534 14.3239 46.4525 15.3443C46.6517 16.3647 46.5435 17.4212 46.1415 18.38C45.7395 19.3387 45.062 20.1566 44.1947 20.7299C43.3274 21.3031 42.3094 21.606 41.2698 21.6C40.5803 21.6054 39.8966 21.4731 39.2589 21.2108C38.6211 20.9485 38.0422 20.5615 37.556 20.0725C37.0698 19.5835 36.6862 19.0024 36.4275 18.3631C36.1689 17.7239 36.0405 17.0395 36.0498 16.35ZM43.5698 16.35C43.558 15.9018 43.4143 15.467 43.1567 15.1001C42.8991 14.7331 42.5391 14.4502 42.1215 14.2868C41.704 14.1234 41.2476 14.0867 40.8093 14.1814C40.3711 14.276 39.9705 14.4978 39.6576 14.8189C39.3447 15.14 39.1334 15.5463 39.0502 15.9868C38.967 16.4274 39.0155 16.8827 39.1897 17.2958C39.3639 17.709 39.656 18.0616 40.0296 18.3095C40.4031 18.5575 40.8414 18.6899 41.2898 18.69C41.5951 18.696 41.8983 18.6389 42.1805 18.5223C42.4627 18.4058 42.7178 18.2323 42.9299 18.0127C43.142 17.7931 43.3065 17.5321 43.4132 17.246C43.5198 16.9599 43.5664 16.6549 43.5498 16.35H43.5698Z" fill="#8897BD"/>
<path d="M58.3598 11.4V20.81C58.3598 24.13 55.7598 25.54 53.1298 25.54C52.2022 25.6161 51.2717 25.4318 50.4431 25.0078C49.6145 24.5838 48.9207 23.9369 48.4398 23.14L50.9698 21.68C51.1749 22.0933 51.501 22.4344 51.9047 22.6577C52.3085 22.881 52.7707 22.976 53.2298 22.93C53.5223 22.966 53.8191 22.937 54.0991 22.8449C54.379 22.7529 54.6351 22.6001 54.8492 22.3976C55.0632 22.195 55.2298 21.9477 55.3371 21.6732C55.4444 21.3987 55.4897 21.104 55.4698 20.81V19.9C55.1207 20.3232 54.6778 20.6593 54.1761 20.8815C53.6744 21.1037 53.1279 21.2059 52.5798 21.18C51.2538 21.18 49.982 20.6532 49.0443 19.7155C48.1066 18.7778 47.5798 17.506 47.5798 16.18C47.5798 14.8539 48.1066 13.5821 49.0443 12.6444C49.982 11.7068 51.2538 11.18 52.5798 11.18C53.1279 11.154 53.6744 11.2562 54.1761 11.4784C54.6778 11.7006 55.1207 12.0367 55.4698 12.46V11.46L58.3598 11.4ZM55.4698 16.15C55.4898 15.6715 55.3662 15.1981 55.1149 14.7905C54.8636 14.3829 54.4961 14.0597 54.0597 13.8627C53.6233 13.6656 53.1379 13.6036 52.6659 13.6846C52.194 13.7656 51.7571 13.9859 51.4113 14.3172C51.0656 14.6485 50.8269 15.0757 50.7259 15.5437C50.6249 16.0118 50.6662 16.4994 50.8446 16.9438C51.0229 17.3882 51.3301 17.7691 51.7267 18.0375C52.1232 18.3059 52.591 18.4495 53.0698 18.45C53.3823 18.4725 53.696 18.4292 53.9907 18.3229C54.2854 18.2167 54.5545 18.0498 54.7807 17.833C55.0068 17.6163 55.185 17.3545 55.3037 17.0646C55.4225 16.7747 55.479 16.4631 55.4698 16.15Z" fill="#8897BD"/>
<path d="M60.0499 16.3501C60.0499 15.3113 60.3581 14.2959 60.9354 13.4323C61.5127 12.5687 62.3332 11.8958 63.2931 11.4988C64.253 11.1017 65.3091 10.9983 66.3278 11.2017C67.3465 11.4051 68.2819 11.9061 69.0158 12.6413C69.7496 13.3766 70.2488 14.313 70.4502 15.332C70.6517 16.3511 70.5463 17.407 70.1474 18.3661C69.7485 19.3253 69.074 20.1445 68.2094 20.7202C67.3447 21.2958 66.3287 21.6021 65.2899 21.6001C64.5991 21.6068 63.9139 21.4755 63.2744 21.2139C62.635 20.9523 62.0542 20.5657 61.5662 20.0767C61.0781 19.5877 60.6926 19.0062 60.4322 18.3663C60.1719 17.7264 60.0419 17.0409 60.0499 16.3501ZM67.5699 16.3501C67.5581 15.9015 67.4142 15.4663 67.1561 15.0991C66.8981 14.732 66.5374 14.4491 66.1193 14.286C65.7012 14.1229 65.2443 14.0868 64.8058 14.1823C64.3673 14.2777 63.9667 14.5005 63.6542 14.8226C63.3417 15.1447 63.1313 15.5519 63.0492 15.9931C62.9671 16.4343 63.017 16.8899 63.1927 17.3028C63.3685 17.7158 63.6621 18.0677 64.037 18.3145C64.4118 18.5612 64.8511 18.6919 65.2999 18.6901C65.6052 18.696 65.9084 18.639 66.1906 18.5224C66.4728 18.4059 66.7279 18.2324 66.94 18.0128C67.1521 17.7931 67.3166 17.5321 67.4233 17.2461C67.53 16.96 67.5765 16.655 67.5599 16.3501H67.5699Z" fill="#8897BD"/>
<path d="M71.9199 8.74997C71.9199 8.39792 72.0243 8.05378 72.2199 7.76106C72.4155 7.46834 72.6935 7.24019 73.0187 7.10547C73.344 6.97074 73.7019 6.93549 74.0472 7.00417C74.3925 7.07286 74.7096 7.24238 74.9586 7.49132C75.2075 7.74026 75.377 8.05742 75.4457 8.40271C75.5144 8.748 75.4791 9.1059 75.3444 9.43115C75.2097 9.7564 74.9816 10.0344 74.6888 10.23C74.3961 10.4256 74.052 10.53 73.6999 10.53C73.2294 10.5248 72.7797 10.3356 72.447 10.0029C72.1143 9.67018 71.9251 9.22045 71.9199 8.74997ZM72.2099 11.4H75.2099V21.3H72.2099V11.4Z" fill="#8897BD"/>
<path d="M88.0499 16.3499C88.0835 17.0084 87.9866 17.6669 87.7647 18.2877C87.5429 18.9085 87.2004 19.4793 86.7571 19.9673C86.3137 20.4552 85.7783 20.8507 85.1815 21.1309C84.5848 21.4111 83.9385 21.5705 83.2799 21.5999C82.721 21.6371 82.161 21.5476 81.6415 21.3381C81.122 21.1286 80.6566 20.8045 80.2799 20.3899V25.2799H77.2799V11.3999H80.2799V12.3299C80.6571 11.9166 81.1229 11.594 81.6424 11.3862C82.1619 11.1784 82.7217 11.0908 83.2799 11.1299C83.9359 11.1595 84.5796 11.3179 85.1743 11.5963C85.769 11.8746 86.3031 12.2673 86.746 12.752C87.189 13.2368 87.5321 13.804 87.7558 14.4213C87.9795 15.0386 88.0795 15.694 88.0499 16.3499ZM85.0499 16.3499C85.0381 15.8855 84.8894 15.4349 84.6226 15.0545C84.3558 14.6742 83.9826 14.3811 83.5499 14.2119C83.1172 14.0428 82.6442 14.0051 82.1901 14.1037C81.7361 14.2022 81.3213 14.4326 80.9976 14.7659C80.6739 15.0992 80.4558 15.5206 80.3707 15.9773C80.2855 16.4341 80.337 16.9058 80.5188 17.3333C80.7006 17.7609 81.0045 18.1253 81.3925 18.3809C81.7805 18.6364 82.2353 18.7718 82.6999 18.7699C83.0181 18.7834 83.3356 18.7295 83.6315 18.6117C83.9275 18.4939 84.1952 18.3149 84.4171 18.0864C84.639 17.8579 84.81 17.5851 84.9191 17.2858C85.0282 16.9866 85.0727 16.6676 85.0499 16.3499Z" fill="#8897BD"/>
<path d="M97.1798 18.3301C97.1798 20.6101 95.1798 21.5801 93.0598 21.5801C92.1951 21.6579 91.327 21.4746 90.5676 21.0539C89.8082 20.6332 89.1924 19.9944 88.7998 19.2201L91.3798 17.7601C91.482 18.1169 91.7036 18.4278 92.0076 18.6408C92.3116 18.8538 92.6795 18.9559 93.0498 18.9301C93.7598 18.9301 94.1198 18.7101 94.1198 18.3101C94.1198 17.2201 89.2498 17.8001 89.2498 14.3701C89.2498 12.2101 91.0698 11.1301 93.1298 11.1301C93.9128 11.095 94.6908 11.2727 95.381 11.6442C96.0711 12.0157 96.6478 12.5672 97.0498 13.2401L94.4698 14.6001C94.3558 14.3421 94.1696 14.1226 93.9336 13.9683C93.6975 13.8139 93.4218 13.7311 93.1398 13.7301C92.6198 13.7301 92.3098 13.9301 92.3098 14.2801C92.3098 15.4201 97.1798 14.6701 97.1798 18.3301Z" fill="#8897BD"/>
<path d="M108.05 11.3999V21.2999H105.05V20.3699C104.709 20.7816 104.276 21.1074 103.786 21.321C103.297 21.5347 102.763 21.6302 102.23 21.5999C100.23 21.5999 98.5199 20.1699 98.5199 17.4999V11.3999H101.52V17.0499C101.496 17.2861 101.524 17.5246 101.602 17.749C101.679 17.9733 101.805 18.1781 101.969 18.3493C102.134 18.5204 102.334 18.6538 102.555 18.7403C102.776 18.8267 103.013 18.8641 103.25 18.8499C104.33 18.8499 105.09 18.2099 105.09 16.8499V11.3999H108.05Z" fill="#8897BD"/>
<path d="M125.05 15.22V21.3001H122.05V15.4801C122.05 14.4801 121.58 13.86 120.63 13.86C119.68 13.86 119.08 14.55 119.08 15.72V21.3001H116.08V15.4801C116.08 14.4801 115.61 13.86 114.66 13.86C113.71 13.86 113.11 14.55 113.11 15.72V21.3001H110.11V11.4001H113.11V12.3101C113.42 11.908 113.826 11.5896 114.291 11.3836C114.755 11.1776 115.263 11.0905 115.77 11.13C116.277 11.1036 116.783 11.2095 117.237 11.4374C117.691 11.6653 118.078 12.0074 118.36 12.4301C118.689 11.9885 119.125 11.6377 119.627 11.4103C120.129 11.183 120.681 11.0865 121.23 11.13C123.57 11.13 125.05 12.75 125.05 15.22Z" fill="#8897BD"/>
<path d="M13.4999 4.25V0H0.0998535V29.2H13.4999V24.95C10.7549 24.95 8.1223 23.8596 6.1813 21.9186C4.2403 19.9776 3.14985 17.345 3.14985 14.6C3.14985 11.855 4.2403 9.22245 6.1813 7.28144C8.1223 5.34044 10.7549 4.25 13.4999 4.25Z" fill="#8897BD"/>
<path d="M13.4999 4.25V24.95C16.2449 24.95 18.8774 23.8596 20.8184 21.9186C22.7594 19.9776 23.8499 17.345 23.8499 14.6C23.8499 11.855 22.7594 9.22245 20.8184 7.28144C18.8774 5.34044 16.2449 4.25 13.4999 4.25Z" fill="#8897BD"/>
<path d="M127.57 11.3399C128.785 11.3399 129.77 10.355 129.77 9.13994C129.77 7.92492 128.785 6.93994 127.57 6.93994C126.355 6.93994 125.37 7.92492 125.37 9.13994C125.37 10.355 126.355 11.3399 127.57 11.3399Z" fill="#8897BD"/>
</svg>
