<svg width="120" height="28" viewBox="0 0 120 28" fill="none" xmlns="http://www.w3.org/2000/svg">
<path d="M35.0448 7.68054H38.0448V19.8105H35.0448V7.68054ZM39.2348 15.2305C39.2348 12.2305 41.0748 10.4405 43.9148 10.4405C46.7548 10.4405 48.5948 12.2305 48.5948 15.2305C48.5948 18.2305 46.7948 20.0305 43.9148 20.0305C41.0348 20.0305 39.2348 18.2805 39.2348 15.2305ZM45.5848 15.2305C45.5848 13.5805 44.9348 12.6105 43.9148 12.6105C42.8948 12.6105 42.2548 13.6105 42.2548 15.2305C42.2548 16.8505 42.8848 17.8305 43.9148 17.8305C44.9448 17.8305 45.5848 16.9105 45.5848 15.2405V15.2305ZM49.7248 20.4005H52.6048C52.7419 20.705 52.9736 20.9571 53.2655 21.1193C53.5574 21.2815 53.8939 21.345 54.2248 21.3005C55.3648 21.3005 55.9648 20.6805 55.9648 19.7805V18.1005H55.9048C55.6658 18.6154 55.2779 19.0469 54.7913 19.3392C54.3047 19.6315 53.7416 19.7713 53.1748 19.7405C50.9848 19.7405 49.5348 18.0705 49.5348 15.2005C49.5348 12.3305 50.9148 10.5205 53.2148 10.5205C53.7994 10.4976 54.377 10.6539 54.8703 10.9685C55.3636 11.283 55.749 11.7408 55.9748 12.2805V10.6105H58.9748V19.7105C58.9748 21.9005 57.0448 23.2605 54.1948 23.2605C51.5448 23.2605 49.8948 22.0705 49.7248 20.4105V20.4005ZM55.9748 15.2205C55.9748 13.7605 55.3048 12.8405 54.2448 12.8405C53.1848 12.8405 52.5348 13.7505 52.5348 15.2205C52.5348 16.6905 53.1748 17.5205 54.2448 17.5205C55.3148 17.5205 55.9748 16.7105 55.9748 15.2305V15.2205ZM60.1048 15.2205C60.1048 12.2205 61.9448 10.4305 64.7848 10.4305C67.6248 10.4305 69.4748 12.2205 69.4748 15.2205C69.4748 18.2205 67.6748 20.0205 64.7848 20.0205C61.8948 20.0205 60.1048 18.2805 60.1048 15.2305V15.2205ZM66.4548 15.2205C66.4548 13.5705 65.8048 12.6005 64.7848 12.6005C63.7648 12.6005 63.1748 13.6105 63.1748 15.2405C63.1748 16.8705 63.8048 17.8405 64.8248 17.8405C65.8448 17.8405 66.4548 16.9105 66.4548 15.2405V15.2205ZM70.6148 8.43054C70.6069 8.12764 70.6892 7.82923 70.8511 7.57314C71.0131 7.31705 71.2474 7.1148 71.5244 6.99204C71.8014 6.86928 72.1086 6.83153 72.4071 6.88359C72.7056 6.93564 72.9819 7.07515 73.2011 7.28443C73.4202 7.49371 73.5722 7.76333 73.6379 8.05912C73.7036 8.35491 73.68 8.66354 73.57 8.9459C73.4601 9.22825 73.2688 9.47161 73.0205 9.64512C72.7721 9.81864 72.4777 9.91449 72.1748 9.92054C71.974 9.93433 71.7725 9.90645 71.583 9.83865C71.3934 9.77085 71.22 9.66459 71.0735 9.52654C70.927 9.38849 70.8106 9.22165 70.7317 9.03648C70.6527 8.85131 70.613 8.65182 70.6148 8.45054V8.43054ZM70.6148 10.6305H73.6148V19.8105H70.6148V10.6305ZM84.5048 15.2205C84.5048 18.2205 83.1748 19.9305 80.8948 19.9305C80.3102 19.9681 79.7281 19.8251 79.2273 19.5211C78.7265 19.2171 78.3312 18.7666 78.0948 18.2305H78.0348V22.7505H75.0348V10.6105H78.0348V12.2505H78.0948C78.3202 11.7057 78.708 11.2434 79.2054 10.9267C79.7028 10.61 80.2857 10.4542 80.8748 10.4805C83.1748 10.5205 84.5448 12.2405 84.5448 15.2405L84.5048 15.2205ZM81.5048 15.2205C81.5048 13.7605 80.8348 12.8305 79.7848 12.8305C78.7348 12.8305 78.0648 13.7705 78.0548 15.2205C78.0448 16.6705 78.7348 17.6005 79.7848 17.6005C80.8348 17.6005 81.5048 16.6905 81.5048 15.2405V15.2205ZM89.6548 10.4205C92.1448 10.4205 93.6548 11.6005 93.7248 13.4905H90.9948C90.9948 12.8405 90.4548 12.4305 89.6248 12.4305C88.7948 12.4305 88.4248 12.7505 88.4248 13.2205C88.4248 13.6905 88.7548 13.8405 89.4248 13.9805L91.3448 14.3705C93.1748 14.7605 93.9548 15.5005 93.9548 16.8905C93.9548 18.7905 92.2248 20.0105 89.6748 20.0105C87.1248 20.0105 85.4548 18.7905 85.3248 16.9205H88.2148C88.3048 17.6005 88.8448 18.0005 89.7248 18.0005C90.6048 18.0005 91.0048 17.7105 91.0048 17.2305C91.0048 16.7505 90.7248 16.6505 90.0048 16.5005L88.2748 16.1305C86.4848 15.7605 85.5448 14.8105 85.5448 13.4105C85.5648 11.6105 87.1748 10.4405 89.6548 10.4405V10.4205ZM103.965 19.7905H101.075V18.0805H101.015C100.856 18.6547 100.505 19.1572 100.022 19.5046C99.5378 19.8521 98.9496 20.0235 98.3548 19.9905C97.899 20.0164 97.443 19.9442 97.0175 19.7787C96.592 19.6133 96.207 19.3584 95.8885 19.0313C95.57 18.7043 95.3254 18.3127 95.1712 17.883C95.017 17.4533 94.9569 16.9955 94.9948 16.5405V10.6105H97.9948V15.8505C97.9948 16.9405 98.5548 17.5205 99.4848 17.5205C99.7029 17.521 99.9185 17.4748 100.117 17.3851C100.316 17.2954 100.493 17.1642 100.637 17.0004C100.781 16.8366 100.889 16.6439 100.952 16.4352C101.015 16.2265 101.033 16.0067 101.005 15.7905V10.6105H104.005L103.965 19.7905ZM105.415 10.6105H108.315V12.3805H108.375C108.534 11.814 108.877 11.3163 109.349 10.9652C109.821 10.6142 110.396 10.4297 110.985 10.4405C111.583 10.3926 112.178 10.5717 112.651 10.9423C113.123 11.3129 113.439 11.8478 113.535 12.4405H113.595C113.776 11.8415 114.152 11.3198 114.662 10.9577C115.173 10.5956 115.789 10.4137 116.415 10.4405C116.823 10.4268 117.229 10.4991 117.607 10.6527C117.986 10.8063 118.327 11.0377 118.61 11.3319C118.893 11.6262 119.111 11.9767 119.25 12.3606C119.388 12.7446 119.444 13.1534 119.415 13.5605V19.8105H116.415V14.3605C116.415 13.3605 115.965 12.9005 115.125 12.9005C114.937 12.899 114.752 12.9376 114.581 13.0138C114.41 13.0899 114.257 13.202 114.133 13.3422C114.009 13.4825 113.916 13.6478 113.861 13.8269C113.806 14.006 113.79 14.1948 113.815 14.3805V19.8105H110.965V14.3205C110.965 13.4005 110.515 12.9005 109.695 12.9005C109.505 12.9006 109.318 12.9408 109.145 13.0186C108.973 13.0963 108.818 13.2098 108.693 13.3515C108.567 13.4933 108.473 13.6601 108.416 13.8409C108.36 14.0217 108.342 14.2125 108.365 14.4005V19.8105H105.365L105.415 10.6105Z" fill="#8897BD"/>
<path d="M26.6548 8.23048C26.1459 7.06684 25.4723 5.98242 24.6548 5.01049C23.4462 3.53082 21.938 2.32388 20.2294 1.46909C18.5208 0.614306 16.6506 0.131055 14.7418 0.0511474C12.833 -0.0287606 10.9289 0.296484 9.1548 1.00548C7.38074 1.71447 5.77695 2.79114 4.44897 4.16462C3.12099 5.53809 2.09894 7.17724 1.45009 8.97417C0.801241 10.7711 0.540297 12.6851 0.684439 14.5901C0.82858 16.4952 1.37454 18.3481 2.28638 20.0269C3.19822 21.7058 4.45526 23.1725 5.97478 24.3305C6.94979 25.0884 8.02713 25.7045 9.17478 26.1605C10.7838 26.8199 12.5059 27.1595 14.2448 27.1605C17.8342 27.1525 21.274 25.7218 23.8102 23.1818C26.3465 20.6418 27.7721 17.1999 27.7748 13.6105C27.7774 11.759 27.3961 9.9271 26.6548 8.23048ZM14.2348 2.80048C15.7963 2.80032 17.339 3.14162 18.7548 3.80048C18.4095 3.94965 18.0466 4.05384 17.6748 4.11049C16.4514 4.28758 15.318 4.85556 14.444 5.72966C13.5699 6.60375 13.0019 7.73708 12.8248 8.96048C12.747 9.6466 12.435 10.2849 11.9413 10.7677C11.4476 11.2504 10.8025 11.5481 10.1148 11.6105C8.89138 11.7876 7.75805 12.3556 6.88395 13.2297C6.00986 14.1038 5.44188 15.2371 5.26478 16.4605C5.20482 17.1129 4.92647 17.726 4.47478 18.2005C3.69544 16.5537 3.34533 14.7366 3.45705 12.9182C3.56877 11.0998 4.13868 9.33918 5.11375 7.80023C6.08882 6.26128 7.43735 4.994 9.03385 4.11633C10.6304 3.23866 12.4229 2.77912 14.2448 2.78048L14.2348 2.80048ZM5.96478 20.6105C6.08478 20.5005 6.20478 20.4005 6.32478 20.2805C7.21444 19.4179 7.7855 18.2793 7.94478 17.0505C8.00937 16.3597 8.31778 15.7145 8.81478 15.2305C9.29303 14.7327 9.93675 14.4268 10.6248 14.3705C11.8482 14.1934 12.9815 13.6254 13.8556 12.7513C14.7297 11.8772 15.2977 10.7439 15.4748 9.52048C15.518 8.798 15.8281 8.11732 16.3448 7.61049C16.8348 7.12234 17.4847 6.82759 18.1748 6.78048C19.2987 6.62585 20.3469 6.1262 21.1748 5.35049C22.1174 6.13256 22.9161 7.07338 23.5348 8.13049C23.4968 8.18184 23.4532 8.22879 23.4048 8.27048C22.9274 8.77268 22.2846 9.08525 21.5948 9.15049C20.3701 9.32449 19.2351 9.89147 18.3604 10.7661C17.4858 11.6408 16.9188 12.7758 16.7448 14.0005C16.6743 14.6889 16.368 15.3318 15.8777 15.8202C15.3875 16.3087 14.7435 16.6126 14.0548 16.6805C12.8278 16.8562 11.6902 17.4231 10.8111 18.2968C9.93194 19.1706 9.35808 20.3046 9.17478 21.5305C9.12096 22.0192 8.95312 22.4885 8.68478 22.9005C7.65878 22.2913 6.73987 21.5177 5.96478 20.6105ZM14.2348 24.4705C13.2201 24.4716 12.2102 24.3302 11.2348 24.0505C11.5684 23.4285 11.7854 22.7506 11.8748 22.0505C11.9449 21.3636 12.2497 20.7219 12.738 20.2337C13.2262 19.7454 13.8679 19.4406 14.5548 19.3705C15.78 19.1954 16.9156 18.6283 17.7916 17.754C18.6677 16.8798 19.2372 15.7453 19.4148 14.5205C19.4849 13.8336 19.7897 13.1919 20.278 12.7037C20.7662 12.2154 21.4079 11.9106 22.0948 11.8405C23.0168 11.7206 23.8956 11.3773 24.6548 10.8405C25.0763 12.4384 25.1263 14.1116 24.8008 15.7318C24.4752 17.352 23.7829 18.8762 22.7769 20.1872C21.7709 21.4983 20.4779 22.5616 18.9972 23.2954C17.5165 24.0292 15.8874 24.4141 14.2348 24.4205V24.4705Z" fill="#8897BD"/>
</svg>
