<svg width="119" height="25" viewBox="0 0 119 25" fill="none" xmlns="http://www.w3.org/2000/svg">
<path d="M38.2527 19.9975C37.6579 20.0297 37.0696 19.8606 36.5827 19.5175C36.3792 19.3667 36.2155 19.1686 36.1057 18.9403C35.996 18.7121 35.9434 18.4606 35.9527 18.2075V8.93748C35.9478 8.89824 35.9519 8.8584 35.9648 8.821C35.9777 8.7836 35.9989 8.74962 36.0268 8.72166C36.0548 8.69369 36.0888 8.67248 36.1262 8.65962C36.1636 8.64677 36.2034 8.64262 36.2427 8.64748H37.9227C38.1127 8.64748 38.2027 8.74748 38.2027 8.93748V17.4875C38.2027 17.8675 38.3727 18.0575 38.7227 18.0575C38.871 18.0636 39.0194 18.0467 39.1627 18.0075C39.3627 18.0075 39.4727 18.0675 39.4827 18.2475L39.6327 19.4975C39.6399 19.5339 39.6392 19.5715 39.6306 19.6076C39.6221 19.6438 39.6059 19.6777 39.5832 19.7071C39.5604 19.7365 39.5317 19.7606 39.4988 19.7779C39.4659 19.7953 39.4297 19.8053 39.3927 19.8075C39.0247 19.929 38.6402 19.9931 38.2527 19.9975Z" fill="#8897BD"/>
<path d="M47.7026 18.9275C46.8585 19.6249 45.7977 20.0065 44.7026 20.0065C43.6076 20.0065 42.5468 19.6249 41.7026 18.9275C40.9607 18.1784 40.5444 17.1668 40.5444 16.1125C40.5444 15.0582 40.9607 14.0465 41.7026 13.2975C42.5485 12.6036 43.6086 12.2244 44.7026 12.2244C45.7967 12.2244 46.8568 12.6036 47.7026 13.2975C48.4275 14.0534 48.8322 15.0602 48.8322 16.1075C48.8322 17.1548 48.4275 18.1615 47.7026 18.9175V18.9275ZM43.2826 17.6075C43.6744 17.9623 44.1841 18.1589 44.7126 18.1589C45.2412 18.1589 45.7509 17.9623 46.1426 17.6075C46.4972 17.1998 46.6925 16.6777 46.6925 16.1375C46.6925 15.5972 46.4972 15.0751 46.1426 14.6675C45.7509 14.3126 45.2412 14.1161 44.7126 14.1161C44.1841 14.1161 43.6744 14.3126 43.2826 14.6675C42.9281 15.0751 42.7328 15.5972 42.7328 16.1375C42.7328 16.6777 42.9281 17.1998 43.2826 17.6075Z" fill="#8897BD"/>
<path d="M58.0827 12.4774C58.2727 12.4774 58.3627 12.5774 58.3627 12.7674V19.9374C58.3801 20.4213 58.2896 20.903 58.0976 21.3476C57.9056 21.7921 57.6169 22.1883 57.2527 22.5074C56.4441 23.1968 55.4042 23.5541 54.3427 23.5074C53.3838 23.5411 52.4378 23.2792 51.6327 22.7574C51.2889 22.5316 50.9952 22.2376 50.7698 21.8935C50.5445 21.5494 50.3923 21.1627 50.3227 20.7574C50.3227 20.5574 50.3227 20.4674 50.5927 20.4674H52.2727C52.344 20.4698 52.4131 20.4928 52.4716 20.5336C52.5302 20.5744 52.5757 20.6313 52.6027 20.6974C52.7116 21.0011 52.9288 21.2539 53.2127 21.4074C53.5586 21.5858 53.9435 21.6752 54.3327 21.6674C54.5675 21.6802 54.8025 21.6462 55.024 21.5672C55.2454 21.4882 55.449 21.3659 55.6227 21.2074C55.7813 21.0415 55.9048 20.8453 55.9855 20.6304C56.0663 20.4156 56.1028 20.1866 56.0927 19.9574V19.3274C55.4912 19.7698 54.7591 19.9986 54.0127 19.9774C53.4903 19.9964 52.9694 19.9096 52.4814 19.7223C51.9934 19.535 51.5482 19.251 51.1727 18.8874C50.4517 18.1415 50.0487 17.1447 50.0487 16.1074C50.0487 15.07 50.4517 14.0732 51.1727 13.3274C51.55 12.9669 51.9957 12.6857 52.4835 12.5002C52.9712 12.3147 53.4912 12.2288 54.0127 12.2474C54.7807 12.2271 55.5324 12.4706 56.1427 12.9374V12.7774C56.1381 12.739 56.1421 12.7002 56.1544 12.6636C56.1667 12.627 56.187 12.5936 56.2138 12.5658C56.2406 12.5381 56.2732 12.5166 56.3094 12.5031C56.3455 12.4895 56.3842 12.4841 56.4227 12.4874L58.0827 12.4774ZM54.2027 18.1974C54.4603 18.2053 54.7165 18.1566 54.9533 18.0547C55.19 17.9527 55.4014 17.8 55.5727 17.6074C55.9051 17.178 56.0855 16.6504 56.0855 16.1074C56.0855 15.5643 55.9051 15.0367 55.5727 14.6074C55.402 14.4173 55.1919 14.2669 54.9569 14.1667C54.722 14.0665 54.4679 14.0189 54.2127 14.0274C53.9521 14.0192 53.6928 14.0677 53.4528 14.1696C53.2128 14.2714 52.9978 14.4242 52.8227 14.6174C52.4544 15.0281 52.2607 15.5661 52.2827 16.1174C52.2646 16.6632 52.454 17.1955 52.8127 17.6074C52.9882 17.8 53.2033 17.9524 53.4432 18.0542C53.6831 18.1561 53.9422 18.2049 54.2027 18.1974Z" fill="#8897BD"/>
<path d="M66.9926 18.9275C66.1468 19.6213 65.0866 20.0006 63.9926 20.0006C62.8986 20.0006 61.8384 19.6213 60.9926 18.9275C60.2671 18.1699 59.8621 17.1614 59.8621 16.1125C59.8621 15.0635 60.2671 14.0551 60.9926 13.2975C61.8392 12.6054 62.8991 12.2273 63.9926 12.2273C65.0861 12.2273 66.1459 12.6054 66.9926 13.2975C67.7174 14.0534 68.1221 15.0602 68.1221 16.1075C68.1221 17.1548 67.7174 18.1616 66.9926 18.9175V18.9275ZM62.5626 17.6075C62.7543 17.7898 62.9803 17.9324 63.2274 18.0268C63.4746 18.1212 63.7381 18.1656 64.0026 18.1575C64.2654 18.1643 64.5269 18.1192 64.7723 18.0248C65.0177 17.9305 65.242 17.7886 65.4326 17.6075C65.7813 17.1971 65.9728 16.676 65.9728 16.1375C65.9728 15.5989 65.7813 15.0779 65.4326 14.6675C65.242 14.4863 65.0177 14.3445 64.7723 14.2501C64.5269 14.1557 64.2654 14.1107 64.0026 14.1175C63.7381 14.1093 63.4746 14.1538 63.2274 14.2482C62.9803 14.3426 62.7543 14.4851 62.5626 14.6675C62.2138 15.0779 62.0223 15.5989 62.0223 16.1375C62.0223 16.676 62.2138 17.1971 62.5626 17.6075Z" fill="#8897BD"/>
<path d="M71.7326 10.7776C71.4683 11.0089 71.1289 11.1365 70.7776 11.1365C70.4263 11.1365 70.087 11.0089 69.8226 10.7776C69.7028 10.6645 69.6073 10.5281 69.542 10.3767C69.4768 10.2254 69.4431 10.0624 69.4431 9.89756C69.4431 9.73277 69.4768 9.56971 69.542 9.41838C69.6073 9.26706 69.7028 9.13067 69.8226 9.01756C70.0897 8.79197 70.428 8.66821 70.7776 8.66821C71.1272 8.66821 71.4656 8.79197 71.7326 9.01756C71.8525 9.13067 71.948 9.26706 72.0132 9.41838C72.0785 9.56971 72.1122 9.73277 72.1122 9.89756C72.1122 10.0624 72.0785 10.2254 72.0132 10.3767C71.948 10.5281 71.8525 10.6645 71.7326 10.7776ZM71.9426 19.9976C71.3482 20.0267 70.7609 19.8579 70.2726 19.5176C70.0723 19.3645 69.9114 19.1657 69.8036 18.9378C69.6957 18.7099 69.644 18.4595 69.6526 18.2076V12.7676C69.6478 12.7283 69.6519 12.6885 69.6648 12.6511C69.6776 12.6137 69.6989 12.5797 69.7268 12.5517C69.7548 12.5238 69.7887 12.5026 69.8261 12.4897C69.8635 12.4768 69.9034 12.4727 69.9426 12.4776H71.6226C71.8126 12.4776 71.9026 12.5776 71.9026 12.7676V17.4876C71.9026 17.8676 72.0726 18.0576 72.4126 18.0576C72.5643 18.063 72.7159 18.0462 72.8626 18.0076C73.0626 18.0076 73.1726 18.0676 73.1826 18.2476L73.3326 19.4976C73.3398 19.534 73.3392 19.5716 73.3306 19.6077C73.3221 19.6439 73.3059 19.6778 73.2832 19.7072C73.2604 19.7365 73.2316 19.7607 73.1988 19.778C73.1659 19.7953 73.1297 19.8054 73.0926 19.8076C72.7214 19.9298 72.3335 19.9939 71.9426 19.9976Z" fill="#8897BD"/>
<path d="M79.5126 12.2374C80.0373 12.2167 80.5609 12.3016 81.0522 12.4871C81.5435 12.6727 81.9925 12.955 82.3726 13.3174C83.0797 14.0764 83.4729 15.0751 83.4729 16.1124C83.4729 17.1497 83.0797 18.1485 82.3726 18.9074C81.9943 19.2731 81.5458 19.5582 81.0543 19.7455C80.5627 19.9329 80.0382 20.0186 79.5126 19.9974C78.7637 20.0141 78.0299 19.7859 77.4226 19.3474V22.9574C77.4226 23.1474 77.3226 23.2374 77.1326 23.2374H75.4526C75.4142 23.2446 75.3747 23.2423 75.3375 23.2308C75.3002 23.2192 75.2663 23.1988 75.2388 23.1712C75.2112 23.1436 75.1907 23.1098 75.1792 23.0725C75.1677 23.0353 75.1654 22.9958 75.1726 22.9574V14.7574C75.1843 14.6772 75.1772 14.5954 75.1517 14.5184C75.1262 14.4415 75.0831 14.3715 75.0258 14.3142C74.9684 14.2569 74.8985 14.2138 74.8216 14.1883C74.7446 14.1628 74.6628 14.1557 74.5826 14.1674H74.2526C74.0326 14.1674 73.9226 14.0874 73.9226 13.9274V12.7474C73.9174 12.6744 73.9374 12.6018 73.9792 12.5418C74.0211 12.4817 74.0823 12.4378 74.1526 12.4174C74.4985 12.2917 74.8646 12.2307 75.2326 12.2374C75.5995 12.2049 75.9678 12.2828 76.2903 12.4609C76.6128 12.6391 76.8747 12.9095 77.0426 13.2374C77.3647 12.9116 77.7498 12.6549 78.1745 12.4829C78.5992 12.311 79.0545 12.2275 79.5126 12.2374ZM77.9526 17.6074C78.1309 17.7938 78.3451 17.9421 78.5822 18.0434C78.8194 18.1447 79.0746 18.1969 79.3326 18.1969C79.5905 18.1969 79.8457 18.1447 80.0829 18.0434C80.32 17.9421 80.5342 17.7938 80.7126 17.6074C81.0882 17.1885 81.2855 16.6396 81.2626 16.0774C81.2887 15.5148 81.091 14.9646 80.7126 14.5474C80.5342 14.3611 80.32 14.2128 80.0829 14.1115C79.8457 14.0102 79.5905 13.9579 79.3326 13.9579C79.0746 13.9579 78.8194 14.0102 78.5822 14.1115C78.3451 14.2128 78.1309 14.3611 77.9526 14.5474C77.5887 14.972 77.3993 15.5187 77.4226 16.0774C77.4023 16.6357 77.5913 17.1814 77.9526 17.6074Z" fill="#8897BD"/>
<path d="M88.1926 19.9976C87.2949 20.0345 86.4048 19.8197 85.6227 19.3776C85.3088 19.1885 85.0416 18.9313 84.8408 18.6249C84.64 18.3184 84.5107 17.9707 84.4626 17.6076C84.4626 17.4076 84.5326 17.3076 84.7526 17.3076H86.2226C86.2926 17.3103 86.3604 17.3323 86.4186 17.3711C86.4769 17.4099 86.5232 17.4641 86.5527 17.5276C86.7627 18.0676 87.3126 18.3376 88.1926 18.3376C88.4996 18.3516 88.8053 18.2898 89.0826 18.1576C89.1784 18.1143 89.2606 18.0459 89.3205 17.9596C89.3803 17.8733 89.4157 17.7724 89.4227 17.6676C89.4227 17.4076 89.2627 17.2276 88.9426 17.1076C88.5631 16.9812 88.1707 16.8974 87.7727 16.8576C87.3011 16.8042 86.8335 16.7207 86.3727 16.6076C85.9245 16.5061 85.517 16.2728 85.2027 15.9376C85.0176 15.7097 84.8813 15.4463 84.8024 15.1635C84.7234 14.8808 84.7035 14.5849 84.7439 14.2941C84.7842 14.0033 84.8839 13.724 85.0368 13.4734C85.1897 13.2228 85.3925 13.0064 85.6327 12.8376C86.3534 12.3784 87.1991 12.1547 88.0527 12.1976C88.879 12.1696 89.6967 12.374 90.4127 12.7876C90.7012 12.951 90.9497 13.1767 91.14 13.4483C91.3303 13.7199 91.4576 14.0305 91.5126 14.3576C91.5126 14.5576 91.4227 14.6576 91.2427 14.6576H89.7626C89.7003 14.6612 89.6384 14.646 89.5848 14.6139C89.5313 14.5818 89.4887 14.5343 89.4626 14.4776C89.3638 14.2407 89.1776 14.0509 88.9426 13.9476C88.6776 13.8089 88.3817 13.7401 88.0826 13.7476C87.7895 13.7316 87.4971 13.7901 87.2327 13.9176C87.1395 13.9535 87.0592 14.0165 87.0022 14.0985C86.9451 14.1805 86.9139 14.2777 86.9127 14.3776C86.919 14.5143 86.9691 14.6454 87.0555 14.7516C87.1419 14.8578 87.2601 14.9335 87.3926 14.9676C87.7767 15.1123 88.1759 15.2129 88.5826 15.2676C89.0503 15.3291 89.5143 15.4159 89.9726 15.5276C90.4208 15.629 90.8283 15.8624 91.1426 16.1976C91.3108 16.3822 91.4407 16.5984 91.5248 16.8335C91.6089 17.0687 91.6455 17.3182 91.6327 17.5676C91.6413 17.9132 91.5601 18.2553 91.3971 18.5602C91.2341 18.8652 90.9949 19.1227 90.7027 19.3076C89.9555 19.7872 89.08 20.0279 88.1926 19.9976Z" fill="#8897BD"/>
<path d="M102.203 19.4975C102.208 19.533 102.207 19.5693 102.198 19.6043C102.19 19.6392 102.174 19.672 102.153 19.7009C102.131 19.7298 102.104 19.7541 102.073 19.7724C102.042 19.7907 102.008 19.8027 101.973 19.8075C101.607 19.9267 101.227 19.9908 100.843 19.9975C100.463 20.0369 100.079 19.9775 99.7284 19.8251C99.378 19.6727 99.0729 19.4324 98.8426 19.1275C98.1362 19.7348 97.2229 20.0464 96.2926 19.9975C95.8607 20.0174 95.4293 19.9468 95.0263 19.79C94.6233 19.6333 94.2576 19.394 93.9526 19.0875C93.6497 18.7664 93.4148 18.3874 93.2618 17.9733C93.1089 17.5592 93.0411 17.1185 93.0626 16.6775V12.7675C93.0626 12.5775 93.1526 12.4775 93.3426 12.4775H95.0226C95.2126 12.4775 95.3026 12.5775 95.3026 12.7675V16.3775C95.2843 16.8273 95.4381 17.2671 95.7326 17.6075C95.8796 17.7635 96.0583 17.8861 96.2566 17.9672C96.455 18.0483 96.6685 18.0859 96.8826 18.0775C97.1018 18.0871 97.3207 18.0532 97.5266 17.9777C97.7326 17.9021 97.9216 17.7865 98.0826 17.6375C98.235 17.4805 98.3536 17.2939 98.431 17.0892C98.5084 16.8845 98.543 16.6661 98.5326 16.4475V12.7675C98.5326 12.5775 98.6226 12.4775 98.8126 12.4775H100.513C100.703 12.4775 100.793 12.5775 100.793 12.7675V17.4775C100.793 17.8675 100.963 18.0575 101.293 18.0575C101.448 18.0635 101.603 18.0467 101.753 18.0075C101.79 17.9969 101.83 17.995 101.869 18.002C101.907 18.0089 101.944 18.0245 101.976 18.0476C102.007 18.0707 102.034 18.1007 102.052 18.1353C102.071 18.1699 102.081 18.2083 102.083 18.2475L102.203 19.4975Z" fill="#8897BD"/>
<path d="M118.093 19.4975C118.102 19.5334 118.102 19.5707 118.095 19.6069C118.088 19.6431 118.073 19.6772 118.051 19.7068C118.029 19.7365 118 19.7609 117.968 19.7783C117.935 19.7957 117.899 19.8057 117.863 19.8075C117.491 19.9284 117.103 19.9925 116.713 19.9975C116.118 20.0282 115.53 19.8593 115.043 19.5175C114.832 19.3712 114.66 19.175 114.543 18.9465C114.427 18.718 114.368 18.4642 114.373 18.2075V15.8575C114.394 15.4091 114.244 14.9694 113.953 14.6275C113.812 14.4713 113.639 14.348 113.445 14.2668C113.252 14.1855 113.042 14.1482 112.833 14.1575C112.643 14.1504 112.455 14.1863 112.282 14.2625C112.109 14.3387 111.955 14.4533 111.833 14.5975C111.569 14.9326 111.434 15.3514 111.453 15.7775V19.4675C111.453 19.6575 111.363 19.7575 111.173 19.7575H109.483C109.443 19.7624 109.404 19.7583 109.366 19.7454C109.329 19.7325 109.295 19.7113 109.267 19.6834C109.239 19.6554 109.218 19.6214 109.205 19.584C109.192 19.5466 109.188 19.5068 109.193 19.4675V15.8575C109.214 15.414 109.076 14.9775 108.803 14.6275C108.681 14.4806 108.528 14.3622 108.355 14.281C108.182 14.1998 107.994 14.1576 107.803 14.1575C107.599 14.1493 107.395 14.1843 107.206 14.2601C107.016 14.3359 106.845 14.4509 106.703 14.5975C106.417 14.9219 106.269 15.3457 106.293 15.7775V19.4675C106.297 19.5068 106.293 19.5466 106.28 19.584C106.268 19.6214 106.246 19.6554 106.218 19.6834C106.19 19.7113 106.156 19.7325 106.119 19.7454C106.082 19.7583 106.042 19.7624 106.003 19.7575H104.373C104.183 19.7575 104.093 19.6575 104.093 19.4675V14.7575C104.104 14.6773 104.097 14.5955 104.072 14.5185C104.046 14.4416 104.003 14.3717 103.946 14.3143C103.888 14.257 103.819 14.2139 103.742 14.1884C103.665 14.1629 103.583 14.1558 103.503 14.1675H103.173C102.953 14.1675 102.843 14.0875 102.843 13.9275V12.7475C102.837 12.6745 102.857 12.6019 102.899 12.5419C102.941 12.4818 103.002 12.438 103.073 12.4175C103.419 12.2918 103.785 12.2308 104.153 12.2375C104.506 12.2075 104.86 12.2779 105.175 12.4406C105.49 12.6034 105.753 12.852 105.933 13.1575C106.27 12.8378 106.67 12.5911 107.107 12.4328C107.544 12.2745 108.009 12.208 108.473 12.2375C108.923 12.2156 109.373 12.3001 109.784 12.4842C110.196 12.6684 110.559 12.947 110.843 13.2975C111.174 12.9379 111.58 12.6562 112.033 12.4729C112.486 12.2895 112.975 12.2092 113.463 12.2375C113.899 12.2171 114.335 12.2874 114.743 12.4441C115.151 12.6007 115.522 12.8402 115.833 13.1475C116.136 13.468 116.372 13.8469 116.525 14.2612C116.678 14.6755 116.745 15.1165 116.723 15.5575V17.4875C116.723 17.8675 116.893 18.0575 117.213 18.0575C117.368 18.0648 117.523 18.0479 117.673 18.0075C117.879 18.0075 117.989 18.0875 118.003 18.2475L118.093 19.4975Z" fill="#8897BD"/>
<path d="M0.832607 11.1774C1.57038 8.21211 3.27903 5.57886 5.68651 3.69696C8.09399 1.81506 11.0619 0.792725 14.1176 0.792725C17.1733 0.792725 20.1412 1.81506 22.5487 3.69696C24.9562 5.57886 26.6648 8.21211 27.4026 11.1774H26.2026C24.1783 11.1476 22.1955 11.7526 20.5326 12.9074C20.4366 12.9769 20.3364 13.0404 20.2326 13.0974H20.0926C19.9888 13.0404 19.8886 12.9769 19.7926 12.9074C18.115 11.7793 16.1392 11.1768 14.1176 11.1768C12.096 11.1768 10.1202 11.7793 8.44261 12.9074C8.34664 12.9769 8.24645 13.0404 8.14261 13.0974H8.00261C7.89877 13.0404 7.79858 12.9769 7.70261 12.9074C6.03974 11.7526 4.05693 11.1476 2.03261 11.1774H0.832607ZM24.0426 17.4474C24.6586 16.9677 25.4221 16.7167 26.2026 16.7374H27.8126V13.5274H26.2026C24.8278 13.5108 23.4845 13.9387 22.3726 14.7474C21.7469 15.2087 20.99 15.4576 20.2126 15.4576C19.4352 15.4576 18.6783 15.2087 18.0526 14.7474C16.9125 13.9538 15.5567 13.5284 14.1676 13.5284C12.7785 13.5284 11.4227 13.9538 10.2826 14.7474C9.65691 15.2087 8.89997 15.4576 8.12261 15.4576C7.34525 15.4576 6.58831 15.2087 5.96261 14.7474C4.83701 13.9284 3.4744 13.4999 2.08261 13.5274H0.422607V16.7374H2.03261C2.81312 16.7167 3.5766 16.9677 4.19261 17.4474C5.33062 18.2416 6.6849 18.6674 8.07261 18.6674C9.46031 18.6674 10.8146 18.2416 11.9526 17.4474C12.5694 16.9692 13.3323 16.7184 14.1126 16.7374C14.8934 16.7151 15.6574 16.9662 16.2726 17.4474C17.4127 18.2411 18.7685 18.6665 20.1576 18.6665C21.5467 18.6665 22.9025 18.2411 24.0426 17.4474ZM24.0426 23.1874C24.6586 22.7077 25.4221 22.4567 26.2026 22.4774H27.8126V19.2674H26.2026C24.8278 19.2508 23.4845 19.6787 22.3726 20.4874C21.7469 20.9487 20.99 21.1976 20.2126 21.1976C19.4352 21.1976 18.6783 20.9487 18.0526 20.4874C16.9125 19.6938 15.5567 19.2684 14.1676 19.2684C12.7785 19.2684 11.4227 19.6938 10.2826 20.4874C9.65691 20.9487 8.89997 21.1976 8.12261 21.1976C7.34525 21.1976 6.58831 20.9487 5.96261 20.4874C4.83701 19.6684 3.4744 19.2399 2.08261 19.2674H0.422607V22.4774H2.03261C2.81312 22.4567 3.5766 22.7077 4.19261 23.1874C5.33062 23.9816 6.6849 24.4074 8.07261 24.4074C9.46031 24.4074 10.8146 23.9816 11.9526 23.1874C12.5694 22.7092 13.3323 22.4584 14.1126 22.4774C14.8934 22.4551 15.6574 22.7062 16.2726 23.1874C17.4127 23.9811 18.7685 24.4065 20.1576 24.4065C21.5467 24.4065 22.9025 23.9811 24.0426 23.1874Z" fill="#8897BD"/>
</svg>
