<svg width="136" height="27" viewBox="0 0 136 27" fill="none" xmlns="http://www.w3.org/2000/svg">
<path d="M20.3489 11.9699C19.9699 12.3512 19.6797 12.8113 19.4989 13.3176C19.3181 13.8239 19.2512 14.3638 19.3029 14.8989L19.2849 14.8809C19.3381 15.5107 19.2531 16.1446 19.036 16.7383C18.8189 17.3319 18.4749 17.871 18.028 18.318C17.581 18.7649 17.0419 19.1089 16.4482 19.326C15.8546 19.5431 15.2207 19.6281 14.5909 19.5749L14.6089 19.5929C13.8555 19.5228 13.0988 19.6867 12.4419 20.0624C11.7851 20.4381 11.2601 21.0072 10.9386 21.6922C10.6171 22.3772 10.5146 23.1446 10.6452 23.8899C10.7759 24.6353 11.1332 25.3222 11.6685 25.857C12.2038 26.3918 12.891 26.7485 13.6364 26.8784C14.3819 27.0084 15.1492 26.9052 15.8339 26.5831C16.5186 26.2609 17.0872 25.7354 17.4623 25.0783C17.8374 24.4211 18.0007 23.6643 17.9299 22.9109L17.9489 22.9289C17.8957 22.299 17.9806 21.6652 18.1977 21.0715C18.4148 20.4779 18.7589 19.9388 19.2058 19.4918C19.6528 19.0449 20.1919 18.7008 20.7855 18.4837C21.3792 18.2667 22.013 18.1817 22.6429 18.2349L22.6239 18.2169C23.2393 18.2722 23.8588 18.1713 24.4249 17.9235C24.9909 17.6757 25.4853 17.289 25.8621 16.7993C26.2389 16.3096 26.4861 15.7326 26.5805 15.122C26.675 14.5113 26.6138 13.8866 26.4026 13.3059C26.1914 12.7252 25.837 12.2072 25.3723 11.7999C24.9076 11.3926 24.3476 11.1092 23.7442 10.976C23.1408 10.8428 22.5136 10.864 21.9205 11.0377C21.3275 11.2115 20.788 11.5321 20.3519 11.9699H20.3489Z" fill="#8897BD"/>
<path d="M12.9719 17.2349L12.9529 17.2169C13.4882 17.2708 14.0289 17.2051 14.5357 17.0245C15.0425 16.8439 15.5029 16.5529 15.8835 16.1726C16.264 15.7923 16.5554 15.3322 16.7363 14.8255C16.9173 14.3188 16.9834 13.7782 16.9299 13.2429L16.9489 13.2609C16.8957 12.631 16.9807 11.9972 17.1978 11.4035C17.4148 10.8099 17.7589 10.2708 18.2058 9.82381C18.6528 9.37685 19.1919 9.03282 19.7855 8.81573C20.3792 8.59863 21.013 8.5137 21.6429 8.56687L21.6239 8.54887C22.3774 8.61963 23.1343 8.45624 23.7915 8.08098C24.4488 7.70571 24.9742 7.13685 25.2962 6.45198C25.6182 5.76711 25.7211 4.99958 25.5909 4.25408C25.4607 3.50857 25.1037 2.82138 24.5685 2.28625C24.0334 1.75111 23.3462 1.39408 22.6007 1.26385C21.8552 1.13362 21.0877 1.23653 20.4028 1.55855C19.7179 1.88057 19.1491 2.40602 18.7738 3.06322C18.3985 3.72043 18.2351 4.47739 18.3059 5.23087L18.2879 5.21187C18.3412 5.84176 18.2564 6.47571 18.0394 7.06943C17.8224 7.66315 17.4783 8.20234 17.0314 8.64933C16.5844 9.09633 16.0452 9.44035 15.4515 9.65738C14.8577 9.87442 14.2238 9.95922 13.5939 9.90587L13.6119 9.92487C13.0766 9.87093 12.5359 9.93664 12.0291 10.1172C11.5223 10.2978 11.0619 10.5888 10.6813 10.9691C10.3007 11.3494 10.0094 11.8096 9.82845 12.3162C9.64747 12.8229 9.58136 13.3635 9.6349 13.8989L9.6169 13.8809C9.66989 14.5107 9.58484 15.1445 9.36769 15.738C9.15053 16.3316 8.80649 16.8706 8.35958 17.3176C7.91266 17.7645 7.37362 18.1085 6.78006 18.3257C6.1865 18.5428 5.55271 18.6279 4.9229 18.5749L4.9409 18.5929C4.18742 18.5221 3.43045 18.6855 2.77325 19.0608C2.11604 19.436 1.5906 20.0049 1.26858 20.6898C0.946558 21.3746 0.843645 22.1422 0.973874 22.8877C1.1041 23.6332 1.46114 24.3204 1.99627 24.8555C2.53141 25.3906 3.21859 25.7477 3.9641 25.8779C4.70961 26.0081 5.47714 25.9052 6.16201 25.5832C6.84688 25.2612 7.41574 24.7357 7.791 24.0785C8.16626 23.4213 8.32966 22.6644 8.2589 21.9109L8.2779 21.9289C8.22473 21.299 8.30966 20.6652 8.52675 20.0715C8.74385 19.4779 9.08788 18.9388 9.53483 18.4918C9.98179 18.0449 10.5209 17.7008 11.1145 17.4837C11.7082 17.2666 12.342 17.1817 12.9719 17.2349Z" fill="#8897BD"/>
<path d="M6.2699 15.2278C6.64892 14.8466 6.9391 14.3864 7.11974 13.8801C7.30038 13.3738 7.36702 12.8339 7.3149 12.2988L7.3339 12.3168C7.28069 11.6868 7.36565 11.0527 7.58286 10.4589C7.80007 9.86514 8.14429 9.32592 8.59147 8.87893C9.03865 8.43194 9.57802 8.08795 10.1719 7.87099C10.7658 7.65404 11.3999 7.56934 12.0299 7.62282L12.0109 7.60482C12.7641 7.67538 13.5208 7.5119 14.1777 7.13666C14.8346 6.76142 15.3597 6.1927 15.6816 5.50804C16.0034 4.82339 16.1062 4.05614 15.976 3.31091C15.8458 2.56568 15.4888 1.87876 14.9539 1.34382C14.419 0.808877 13.732 0.451958 12.9868 0.321734C12.2416 0.19151 11.4743 0.294321 10.7897 0.616145C10.105 0.937968 9.53629 1.46314 9.16105 2.12004C8.78582 2.77694 8.62233 3.5336 8.6929 4.28682L8.6749 4.26882C8.72807 4.89867 8.64314 5.53254 8.42604 6.12618C8.20895 6.71982 7.86492 7.25893 7.41796 7.70589C6.97101 8.15284 6.43189 8.49687 5.83825 8.71397C5.24461 8.93106 4.61075 9.01599 3.9809 8.96282L3.9989 8.98082C3.38347 8.92563 2.76406 9.02668 2.19808 9.2746C1.6321 9.52252 1.13786 9.90929 0.761145 10.3991C0.384435 10.8889 0.137448 11.4658 0.0430726 12.0765C-0.0513028 12.6871 0.00998625 13.3117 0.221261 13.8923C0.432535 14.473 0.78696 14.9909 1.25169 15.3982C1.71642 15.8054 2.27642 16.0887 2.8798 16.2219C3.48317 16.355 4.1104 16.3338 4.70337 16.16C5.29633 15.9862 5.83584 15.6656 6.2719 15.2278H6.2699Z" fill="#8897BD"/>
<path d="M37.2469 5.25391H40.2169V19.7069H37.2469V5.25391Z" fill="#8897BD"/>
<path d="M41.8989 14.7577C41.8947 13.7191 42.1989 12.7026 42.7729 11.837C43.3469 10.9713 44.165 10.2956 45.1233 9.8952C46.0817 9.49485 47.1374 9.38794 48.1566 9.58802C49.1758 9.7881 50.1127 10.2862 50.8486 11.0191C51.5845 11.7521 52.0863 12.687 52.2905 13.7054C52.4946 14.7237 52.392 15.7798 51.9955 16.7398C51.5989 17.6998 50.9264 18.5205 50.0631 19.098C49.1998 19.6755 48.1845 19.9837 47.1459 19.9837C46.4564 19.9916 45.7723 19.862 45.1335 19.6024C44.4948 19.3428 43.9142 18.9585 43.4256 18.4719C42.9371 17.9853 42.5505 17.4063 42.2883 16.7685C42.0262 16.1308 41.8938 15.4472 41.8989 14.7577ZM49.4229 14.7577C49.4105 14.3101 49.2664 13.8759 49.0086 13.5097C48.7509 13.1434 48.3909 12.8613 47.9736 12.6985C47.5564 12.5357 47.1004 12.4996 46.6627 12.5945C46.2251 12.6895 45.8251 12.9114 45.5128 13.2324C45.2005 13.5535 44.9898 13.9595 44.907 14.3996C44.8242 14.8398 44.873 15.2945 45.0473 15.7071C45.2215 16.1197 45.5136 16.4717 45.8868 16.7193C46.2601 16.9668 46.698 17.0988 47.1459 17.0987C47.4526 17.1069 47.7577 17.0515 48.0419 16.9359C48.3261 16.8203 48.5833 16.6471 48.7973 16.4271C49.0112 16.2072 49.1772 15.9453 49.2849 15.658C49.3926 15.3706 49.4396 15.0641 49.4229 14.7577Z" fill="#8897BD"/>
<path d="M64.2299 9.8077V19.2077C64.2299 22.5337 61.6359 23.9397 59.0029 23.9397C58.0759 24.0091 57.1476 23.8218 56.3199 23.3985C55.4923 22.9751 54.7972 22.332 54.3109 21.5397L56.8449 20.0747C57.0493 20.4877 57.375 20.8284 57.7783 21.0513C58.1817 21.2741 58.6435 21.3685 59.1019 21.3217C59.3949 21.3623 59.6933 21.3365 59.975 21.2462C60.2566 21.1559 60.5144 21.0034 60.7292 20.8001C60.944 20.5967 61.1103 20.3477 61.2159 20.0713C61.3214 19.795 61.3635 19.4985 61.3389 19.2037V18.2987C60.9911 18.7242 60.5485 19.0623 60.0464 19.2858C59.5443 19.5093 58.9969 19.612 58.4479 19.5857C57.1417 19.5445 55.9028 18.9967 54.9934 18.0581C54.084 17.1196 53.5755 15.864 53.5755 14.5572C53.5755 13.2504 54.084 11.9948 54.9934 11.0563C55.9028 10.1177 57.1417 9.56989 58.4479 9.5287C58.9969 9.50236 59.5443 9.60506 60.0464 9.82857C60.5485 10.0521 60.9911 10.3902 61.3389 10.8157V9.8057L64.2299 9.8077ZM61.3399 14.5587C61.3599 14.0801 61.2361 13.6064 60.9846 13.1987C60.7331 12.7909 60.3653 12.4678 59.9286 12.2709C59.4919 12.0739 59.0063 12.0122 58.5342 12.0936C58.0621 12.175 57.6252 12.3958 57.2796 12.7277C56.9341 13.0595 56.6958 13.4871 56.5953 13.9555C56.4949 14.4239 56.5369 14.9117 56.7161 15.356C56.8952 15.8003 57.2032 16.1809 57.6004 16.4487C57.9976 16.7165 58.4659 16.8593 58.9449 16.8587C59.257 16.8805 59.5701 16.8367 59.8642 16.7301C60.1583 16.6235 60.4268 16.4564 60.6524 16.2398C60.878 16.0231 61.0558 15.7616 61.1742 15.472C61.2926 15.1825 61.3491 14.8714 61.3399 14.5587Z" fill="#8897BD"/>
<path d="M65.9119 14.7577C65.9077 13.7191 66.2119 12.7026 66.7859 11.837C67.3599 10.9713 68.178 10.2956 69.1363 9.8952C70.0947 9.49485 71.1504 9.38794 72.1696 9.58802C73.1888 9.7881 74.1257 10.2862 74.8616 11.0191C75.5975 11.7521 76.0993 12.687 76.3035 13.7054C76.5076 14.7237 76.405 15.7798 76.0085 16.7398C75.6119 17.6998 74.9394 18.5205 74.0761 19.098C73.2128 19.6755 72.1975 19.9837 71.1589 19.9837C70.4694 19.9916 69.7853 19.862 69.1465 19.6024C68.5078 19.3428 67.9272 18.9585 67.4386 18.4719C66.9501 17.9853 66.5635 17.4063 66.3013 16.7685C66.0392 16.1308 65.9068 15.4472 65.9119 14.7577ZM73.4359 14.7577C73.4235 14.3101 73.2794 13.8759 73.0216 13.5097C72.7639 13.1434 72.4039 12.8613 71.9866 12.6985C71.5694 12.5357 71.1134 12.4996 70.6757 12.5945C70.238 12.6895 69.8381 12.9114 69.5258 13.2324C69.2135 13.5535 69.0028 13.9595 68.92 14.3996C68.8372 14.8398 68.886 15.2945 69.0603 15.7071C69.2345 16.1197 69.5266 16.4717 69.8998 16.7193C70.2731 16.9668 70.711 17.0988 71.1589 17.0987C71.4656 17.1069 71.7707 17.0515 72.0549 16.9359C72.3391 16.8203 72.5963 16.6471 72.8103 16.4271C73.0242 16.2072 73.1902 15.9453 73.2979 15.658C73.4056 15.3706 73.4526 15.0641 73.4359 14.7577Z" fill="#8897BD"/>
<path d="M77.7909 7.1548C77.7909 6.80236 77.8954 6.45783 78.0912 6.16478C78.287 5.87173 78.5653 5.64333 78.891 5.50845C79.2166 5.37357 79.5749 5.33829 79.9205 5.40704C80.2662 5.4758 80.5837 5.64552 80.833 5.89474C81.0822 6.14396 81.2519 6.46148 81.3207 6.80715C81.3894 7.15283 81.3541 7.51113 81.2192 7.83675C81.0844 8.16236 80.856 8.44067 80.5629 8.63648C80.2699 8.83229 79.9253 8.93681 79.5729 8.93681C79.1017 8.93212 78.6512 8.74287 78.318 8.40969C77.9848 8.07651 77.7956 7.62597 77.7909 7.1548ZM78.0909 9.8078H81.0619V19.7078H78.0869L78.0909 9.8078Z" fill="#8897BD"/>
<path d="M93.8859 14.7579C93.9202 15.4122 93.8248 16.0668 93.6053 16.6841C93.3857 17.3014 93.0463 17.8692 92.6066 18.3549C92.1668 18.8406 91.6354 19.2345 91.0428 19.5141C90.4503 19.7936 89.8083 19.9533 89.1539 19.9839C88.6035 20.0139 88.0533 19.9211 87.5433 19.7122C87.0332 19.5032 86.576 19.1834 86.2049 18.7759V23.6669H83.2349V9.80791H86.2049V10.7379C86.5762 10.3307 87.0334 10.0111 87.5435 9.80238C88.0535 9.59362 88.6036 9.50089 89.1539 9.53091C89.8085 9.56137 90.4506 9.72099 91.0432 10.0006C91.6359 10.2802 92.1674 10.6742 92.6072 11.16C93.047 11.6458 93.3864 12.2138 93.6059 12.8313C93.8253 13.4487 93.9205 14.1035 93.8859 14.7579ZM90.9159 14.7579C90.9043 14.2946 90.7563 13.845 90.4904 13.4653C90.2245 13.0857 89.8526 12.7929 89.4211 12.6237C88.9897 12.4544 88.5178 12.4161 88.0648 12.5137C87.6117 12.6112 87.1974 12.8402 86.8738 13.1721C86.5503 13.5039 86.3317 13.9238 86.2456 14.3792C86.1595 14.8346 86.2096 15.3052 86.3897 15.7323C86.5698 16.1594 86.8718 16.5238 87.258 16.7801C87.6442 17.0363 88.0974 17.173 88.5609 17.1729C88.879 17.1871 89.1966 17.1338 89.4928 17.0166C89.789 16.8995 90.057 16.721 90.2794 16.493C90.5017 16.2649 90.6734 15.9925 90.7831 15.6935C90.8928 15.3945 90.938 15.0756 90.9159 14.7579Z" fill="#8897BD"/>
<path d="M103.051 16.7367C103.051 19.0137 101.072 19.9837 98.9339 19.9837C98.07 20.062 97.2026 19.8793 96.4437 19.4593C95.6848 19.0393 95.0693 18.4013 94.6769 17.6277L97.2499 16.1627C97.354 16.5203 97.5775 16.8313 97.8833 17.0439C98.189 17.2564 98.5585 17.3577 98.9299 17.3307C99.6419 17.3307 99.9989 17.1127 99.9989 16.7177C99.9989 15.6277 95.1279 16.2027 95.1279 12.7777C95.1279 10.6187 96.9499 9.53073 99.0089 9.53073C99.7829 9.50624 100.549 9.68983 101.228 10.0624C101.907 10.4349 102.474 10.9827 102.869 11.6487L100.335 13.0147C100.224 12.7554 100.039 12.5345 99.803 12.3797C99.5672 12.2248 99.291 12.1427 99.0089 12.1437C98.4939 12.1437 98.1769 12.3437 98.1769 12.6977C98.1809 13.8267 103.051 13.0737 103.051 16.7367Z" fill="#8897BD"/>
<path d="M113.9 9.80786V19.7079H110.93V18.7769C110.587 19.1877 110.152 19.5114 109.66 19.7213C109.168 19.9313 108.634 20.0217 108.1 19.9849C106.1 19.9849 104.4 18.5599 104.4 15.8849V9.80786H107.37V15.4499C107.345 15.6856 107.372 15.924 107.449 16.1484C107.525 16.3727 107.65 16.5777 107.814 16.749C107.978 16.9204 108.177 17.0539 108.398 17.1404C108.618 17.2269 108.855 17.2642 109.092 17.2499C110.181 17.2499 110.933 16.6169 110.933 15.2109V9.81086L113.9 9.80786Z" fill="#8897BD"/>
<path d="M130.93 13.6289V19.7069H127.96V13.8859C127.96 12.8959 127.485 12.2629 126.535 12.2629C125.545 12.2629 124.99 12.9559 124.99 14.1239V19.7069H122.021V13.8859C122.021 12.8959 121.546 12.2629 120.595 12.2629C119.605 12.2629 119.051 12.9559 119.051 14.1239V19.7069H116.081V9.80686H119.051V10.7169C119.359 10.3131 119.763 9.99299 120.226 9.78564C120.69 9.57829 121.198 9.49035 121.704 9.52986C122.212 9.505 122.718 9.61224 123.173 9.84112C123.627 10.07 124.014 10.4127 124.297 10.8359C124.626 10.3932 125.062 10.0412 125.564 9.81279C126.066 9.5844 126.618 9.48705 127.168 9.52986C129.441 9.53086 130.93 11.1539 130.93 13.6289Z" fill="#8897BD"/>
<path d="M133.442 9.74686C134.659 9.74686 135.646 8.7601 135.646 7.54287C135.646 6.32563 134.659 5.33887 133.442 5.33887C132.225 5.33887 131.238 6.32563 131.238 7.54287C131.238 8.7601 132.225 9.74686 133.442 9.74686Z" fill="#8897BD"/>
</svg>
